<svg xmlns="http://www.w3.org/2000/svg" width="720" height="420" viewBox="0 0 720 420" role="img" aria-label="Corepack &amp; Yarn Switch adoption">
  <style>
    text { font-family: "Helvetica Neue", Arial, sans-serif; }
    .title { font-size: 20px; font-weight: 700; fill: #0f172a; }
    .subtitle { font-size: 12px; fill: #475569; }
    .axis { stroke: #cbd5e1; stroke-width: 1; }
    .footer { font-size: 12px; fill: #94a3b8; }
    .legend { font-size: 12px; fill: #0f172a; }
    .tick { font-size: 12px; fill: #475569; }
  </style>
<text class="title" x="16" y="24">Corepack &amp; Yarn Switch adoption</text><text class="subtitle" x="16" y="42">10/22/2023 – 5/13/2026</text><g class="y-ticks"><line class="axis" x1="64" y1="324" x2="600" y2="324" /><text class="tick" x="52" y="324" dominant-baseline="middle" text-anchor="end">0%</text><line class="axis" x1="64" y1="198" x2="600" y2="198" /><text class="tick" x="52" y="198" dominant-baseline="middle" text-anchor="end">20%</text><line class="axis" x1="64" y1="72" x2="600" y2="72" /><text class="tick" x="52" y="72" dominant-baseline="middle" text-anchor="end">40%</text></g><g class="x-ticks"><text class="tick" x="68" y="344" text-anchor="end" transform="rotate(-35 68 344)">10/22/2023</text><text class="tick" x="119.07494646680942" y="344" text-anchor="end" transform="rotate(-35 119.07494646680942 344)">1/19/2024</text><text class="tick" x="146.0471092077088" y="344" text-anchor="end" transform="rotate(-35 146.0471092077088 344)">3/6/2024</text><text class="tick" x="213.7644539614561" y="344" text-anchor="end" transform="rotate(-35 213.7644539614561 344)">7/2/2024</text><text class="tick" x="278.6124197002141" y="344" text-anchor="end" transform="rotate(-35 278.6124197002141 344)">10/23/2024</text><text class="tick" x="369.28479657387584" y="344" text-anchor="end" transform="rotate(-35 369.28479657387584 344)">3/30/2025</text><text class="tick" x="456.51391862955035" y="344" text-anchor="end" transform="rotate(-35 456.51391862955035 344)">8/29/2025</text><text class="tick" x="536.8565310492506" y="344" text-anchor="end" transform="rotate(-35 536.8565310492506 344)">1/16/2026</text><text class="tick" x="568.9935760171306" y="344" text-anchor="end" transform="rotate(-35 568.9935760171306 344)">3/13/2026</text><text class="tick" x="604" y="344" text-anchor="end" transform="rotate(-35 604 344)">5/13/2026</text></g><g class="series-group"><g class="series" data-key="corepack_adoption"><polyline fill="none" stroke="#2f2a68" stroke-width="3" points="64,262.578431372549 115.07494646680942,252.8212927756654 142.0471092077088,246.56603773584905 209.7644539614561,226.41847826086956 274.6124197002141,203.7709923664122 365.28479657387584,185.76631925397697 452.51391862955035,169.53051126992855 532.8565310492506,160.46221248630886 564.9935760171306,154.1858939311099 600,148.67468562055768" /><circle cx="64" cy="262.578431372549" r="4" fill="#2f2a68" /><circle cx="115.07494646680942" cy="252.8212927756654" r="4" fill="#2f2a68" /><circle cx="142.0471092077088" cy="246.56603773584905" r="4" fill="#2f2a68" /><circle cx="209.7644539614561" cy="226.41847826086956" r="4" fill="#2f2a68" /><circle cx="274.6124197002141" cy="203.7709923664122" r="4" fill="#2f2a68" /><circle cx="365.28479657387584" cy="185.76631925397697" r="4" fill="#2f2a68" /><circle cx="452.51391862955035" cy="169.53051126992855" r="4" fill="#2f2a68" /><circle cx="532.8565310492506" cy="160.46221248630886" r="4" fill="#2f2a68" /><circle cx="564.9935760171306" cy="154.1858939311099" r="4" fill="#2f2a68" /><circle cx="600" cy="148.67468562055768" r="4" fill="#2f2a68" /></g></g><g class="legend-group"><g class="legend-item" data-key="corepack_adoption"><rect x="632" y="62" width="12" height="12" rx="2" fill="#2f2a68" /><text class="legend" x="650" y="72" dominant-baseline="middle">Adoption</text></g></g></svg>
