<svg xmlns="http://www.w3.org/2000/svg" width="720" height="420" viewBox="0 0 720 420" role="img" aria-label="Corepack &amp; Yarn Switch adoption">
  <style>
    text { font-family: "Helvetica Neue", Arial, sans-serif; }
    .title { font-size: 20px; font-weight: 700; fill: #0f172a; }
    .subtitle { font-size: 12px; fill: #475569; }
    .axis { stroke: #cbd5e1; stroke-width: 1; }
    .legend { font-size: 12px; fill: #0f172a; }
    .tick { font-size: 12px; fill: #475569; }
  </style>
<text class="title" x="16" y="24">Corepack &amp; Yarn Switch adoption</text><text class="subtitle" x="16" y="42">10/22/2023 – 3/13/2026</text><g class="y-ticks"><line class="axis" x1="64" y1="324" x2="600" y2="324" /><text class="tick" x="52" y="324" dominant-baseline="middle" text-anchor="end">0%</text><line class="axis" x1="64" y1="198" x2="600" y2="198" /><text class="tick" x="52" y="198" dominant-baseline="middle" text-anchor="end">20%</text><line class="axis" x1="64" y1="72" x2="600" y2="72" /><text class="tick" x="52" y="72" dominant-baseline="middle" text-anchor="end">40%</text></g><g class="x-ticks"><text class="tick" x="68" y="344" text-anchor="end" transform="rotate(-35 68 344)">10/22/2023</text><text class="tick" x="122.64375715922108" y="344" text-anchor="end" transform="rotate(-35 122.64375715922108 344)">1/19/2024</text><text class="tick" x="151.50057273768613" y="344" text-anchor="end" transform="rotate(-35 151.50057273768613 344)">3/6/2024</text><text class="tick" x="223.94959908361972" y="344" text-anchor="end" transform="rotate(-35 223.94959908361972 344)">7/2/2024</text><text class="tick" x="293.32875143184424" y="344" text-anchor="end" transform="rotate(-35 293.32875143184424 344)">10/23/2024</text><text class="tick" x="390.33676975945014" y="344" text-anchor="end" transform="rotate(-35 390.33676975945014 344)">3/30/2025</text><text class="tick" x="483.6609392898053" y="344" text-anchor="end" transform="rotate(-35 483.6609392898053 344)">8/29/2025</text><text class="tick" x="569.6174112256587" y="344" text-anchor="end" transform="rotate(-35 569.6174112256587 344)">1/16/2026</text><text class="tick" x="604" y="344" text-anchor="end" transform="rotate(-35 604 344)">3/13/2026</text></g><g class="series-group"><g class="series" data-key="corepack_adoption"><polyline fill="none" stroke="#2f2a68" stroke-width="3" points="64,262.578431372549 118.64375715922108,252.8212927756654 147.50057273768613,246.56603773584905 219.94959908361972,226.41847826086956 289.32875143184424,203.7709923664122 386.33676975945014,185.76631925397697 479.6609392898053,169.53051126992855 565.6174112256587,160.46221248630886 600,154.1858939311099" /><circle cx="64" cy="262.578431372549" r="4" fill="#2f2a68" /><circle cx="118.64375715922108" cy="252.8212927756654" r="4" fill="#2f2a68" /><circle cx="147.50057273768613" cy="246.56603773584905" r="4" fill="#2f2a68" /><circle cx="219.94959908361972" cy="226.41847826086956" r="4" fill="#2f2a68" /><circle cx="289.32875143184424" cy="203.7709923664122" r="4" fill="#2f2a68" /><circle cx="386.33676975945014" cy="185.76631925397697" r="4" fill="#2f2a68" /><circle cx="479.6609392898053" cy="169.53051126992855" r="4" fill="#2f2a68" /><circle cx="565.6174112256587" cy="160.46221248630886" r="4" fill="#2f2a68" /><circle cx="600" cy="154.1858939311099" r="4" fill="#2f2a68" /></g></g><g class="legend-group"><g class="legend-item" data-key="corepack_adoption"><rect x="632" y="62" width="12" height="12" rx="2" fill="#2f2a68" /><text class="legend" x="650" y="72" dominant-baseline="middle">Adoption</text></g></g></svg>
