<svg xmlns="http://www.w3.org/2000/svg" width="838" height="489" viewBox="0 0 838 489" role="img" aria-label="Corepack &amp; Yarn Switch adoption">
  <style>
    text { font-family: "Helvetica Neue", Arial, sans-serif; }
    .title { font-size: 20px; font-weight: 700; fill: #e2e8f0; }
    .subtitle { font-size: 12px; fill: #cbd5e1; }
    .axis { stroke: #475569; stroke-width: 1; }
    .footer { font-size: 12px; fill: #cbd5e1; }
    .legend { font-size: 12px; fill: #e2e8f0; }
    .tick { font-size: 12px; fill: #cbd5e1; }
  </style>
<text class="title" x="16" y="24">Corepack &amp; Yarn Switch adoption</text><text class="subtitle" x="16" y="42">10/22/2023 – 5/13/2026</text><g class="y-ticks"><line class="axis" x1="64" y1="393" x2="718" y2="393" /><text class="tick" x="52" y="393" dominant-baseline="middle" text-anchor="end">0%</text><line class="axis" x1="64" y1="232.5" x2="718" y2="232.5" /><text class="tick" x="52" y="232.5" dominant-baseline="middle" text-anchor="end">20%</text><line class="axis" x1="64" y1="72" x2="718" y2="72" /><text class="tick" x="52" y="72" dominant-baseline="middle" text-anchor="end">40%</text></g><g class="x-ticks"><text class="tick" x="68" y="413" text-anchor="end" transform="rotate(-35 68 413)">10/22/2023</text><text class="tick" x="130.31905781584584" y="413" text-anchor="end" transform="rotate(-35 130.31905781584584 413)">1/19/2024</text><text class="tick" x="163.2291220556745" y="413" text-anchor="end" transform="rotate(-35 163.2291220556745 413)">3/6/2024</text><text class="tick" x="245.8543897216274" y="413" text-anchor="end" transform="rotate(-35 245.8543897216274 413)">7/2/2024</text><text class="tick" x="324.97858672376873" y="413" text-anchor="end" transform="rotate(-35 324.97858672376873 413)">10/23/2024</text><text class="tick" x="435.61241970021416" y="413" text-anchor="end" transform="rotate(-35 435.61241970021416 413)">3/30/2025</text><text class="tick" x="542.0449678800857" y="413" text-anchor="end" transform="rotate(-35 542.0449678800857 413)">8/29/2025</text><text class="tick" x="640.0749464668095" y="413" text-anchor="end" transform="rotate(-35 640.0749464668095 413)">1/16/2026</text><text class="tick" x="679.2869379014988" y="413" text-anchor="end" transform="rotate(-35 679.2869379014988 413)">3/13/2026</text><text class="tick" x="722" y="413" text-anchor="end" transform="rotate(-35 722 413)">5/13/2026</text></g><g class="series-group"><g class="series" data-key="corepack_adoption"><polyline fill="none" stroke="#7c6ff6" stroke-width="3" points="64,314.7606209150327 126.31905781584582,302.3318848451928 159.2291220556745,294.3638814016173 241.8543897216274,268.69972826086956 320.97858672376873,239.85114503816794 431.61241970021416,216.91662095447066 538.0449678800857,196.23529411764707 636.0749464668095,184.684008762322 675.2869379014988,176.68917441224713 718,169.66894477856752" /><circle cx="64" cy="314.7606209150327" r="4" fill="#7c6ff6" /><circle cx="126.31905781584582" cy="302.3318848451928" r="4" fill="#7c6ff6" /><circle cx="159.2291220556745" cy="294.3638814016173" r="4" fill="#7c6ff6" /><circle cx="241.8543897216274" cy="268.69972826086956" r="4" fill="#7c6ff6" /><circle cx="320.97858672376873" cy="239.85114503816794" r="4" fill="#7c6ff6" /><circle cx="431.61241970021416" cy="216.91662095447066" r="4" fill="#7c6ff6" /><circle cx="538.0449678800857" cy="196.23529411764707" r="4" fill="#7c6ff6" /><circle cx="636.0749464668095" cy="184.684008762322" r="4" fill="#7c6ff6" /><circle cx="675.2869379014988" cy="176.68917441224713" r="4" fill="#7c6ff6" /><circle cx="718" cy="169.66894477856752" r="4" fill="#7c6ff6" /></g></g><g class="legend-group"><g class="legend-item" data-key="corepack_adoption"><rect x="750" y="62" width="12" height="12" rx="2" fill="#7c6ff6" /><text class="legend" x="768" y="72" dominant-baseline="middle">Adoption</text></g></g></svg>
