<svg xmlns="http://www.w3.org/2000/svg" width="324" height="489" viewBox="0 0 324 489" role="img" aria-label="Corepack &amp; Yarn Switch adoption">
  <style>
    text { font-family: "Helvetica Neue", Arial, sans-serif; }
    .title { font-size: 16px; font-weight: 700; fill: #e2e8f0; }
    .subtitle { font-size: 12px; fill: #cbd5e1; }
    .axis { stroke: #475569; stroke-width: 1; }
    .footer { font-size: 12px; fill: #cbd5e1; }
    .legend { font-size: 12px; fill: #e2e8f0; }
    .tick { font-size: 12px; fill: #cbd5e1; }
  </style>
<text class="title" x="16" y="24">Corepack &amp; Yarn Switch adoption</text><text class="subtitle" x="16" y="42">10/22/2023 – 5/13/2026</text><g class="y-ticks"><line class="axis" x1="64" y1="393" x2="308" y2="393" /><text class="tick" x="52" y="393" dominant-baseline="middle" text-anchor="end">0%</text><line class="axis" x1="64" y1="254.5" x2="308" y2="254.5" /><text class="tick" x="52" y="254.5" dominant-baseline="middle" text-anchor="end">20%</text><line class="axis" x1="64" y1="116" x2="308" y2="116" /><text class="tick" x="52" y="116" dominant-baseline="middle" text-anchor="end">40%</text></g><g class="x-ticks"><text class="tick" x="68" y="413" text-anchor="end" transform="rotate(-35 68 413)">10/22/2023</text><text class="tick" x="134.35546038543896" y="413" text-anchor="end" transform="rotate(-35 134.35546038543896 413)">7/2/2024</text><text class="tick" x="244.8608137044968" y="413" text-anchor="end" transform="rotate(-35 244.8608137044968 413)">8/29/2025</text><text class="tick" x="312" y="413" text-anchor="end" transform="rotate(-35 312 413)">5/13/2026</text></g><g class="series-group"><g class="series" data-key="corepack_adoption"><polyline fill="none" stroke="#7c6ff6" stroke-width="3" points="64,325.4850217864924 87.25053533190578,314.75991309071156 99.5289079229122,307.88409703504044 130.35546038543896,285.73777173913044 159.87580299785867,260.8435114503817 201.15203426124197,241.052660449808 240.8608137044968,223.20615722924686 277.4346895074947,213.23822562979188 292.06423982869376,206.33925642427556 308,200.28130125751775" /><circle cx="64" cy="325.4850217864924" r="4" fill="#7c6ff6" /><circle cx="87.25053533190578" cy="314.75991309071156" r="4" fill="#7c6ff6" /><circle cx="99.5289079229122" cy="307.88409703504044" r="4" fill="#7c6ff6" /><circle cx="130.35546038543896" cy="285.73777173913044" r="4" fill="#7c6ff6" /><circle cx="159.87580299785867" cy="260.8435114503817" r="4" fill="#7c6ff6" /><circle cx="201.15203426124197" cy="241.052660449808" r="4" fill="#7c6ff6" /><circle cx="240.8608137044968" cy="223.20615722924686" r="4" fill="#7c6ff6" /><circle cx="277.4346895074947" cy="213.23822562979188" r="4" fill="#7c6ff6" /><circle cx="292.06423982869376" cy="206.33925642427556" r="4" fill="#7c6ff6" /><circle cx="308" cy="200.28130125751775" r="4" fill="#7c6ff6" /></g></g><g class="legend-group"><g class="legend-item" data-key="corepack_adoption"><rect x="16" y="62" width="12" height="12" rx="2" fill="#7c6ff6" /><text class="legend" x="34" y="72" dominant-baseline="middle">Adoption</text></g></g></svg>
