<svg xmlns="http://www.w3.org/2000/svg" width="720" height="420" viewBox="0 0 720 420" role="img" aria-label="Corepack &amp; Yarn Switch adoption">
  <style>
    text { font-family: "Helvetica Neue", Arial, sans-serif; }
    .title { font-size: 20px; font-weight: 700; fill: #e2e8f0; }
    .subtitle { font-size: 12px; fill: #cbd5e1; }
    .axis { stroke: #475569; stroke-width: 1; }
    .legend { font-size: 12px; fill: #e2e8f0; }
    .tick { font-size: 12px; fill: #cbd5e1; }
  </style>
<text class="title" x="16" y="24">Corepack &amp; Yarn Switch adoption</text><text class="subtitle" x="16" y="42">10/22/2023 – 3/13/2026</text><g class="y-ticks"><line class="axis" x1="64" y1="324" x2="600" y2="324" /><text class="tick" x="52" y="324" dominant-baseline="middle" text-anchor="end">0%</text><line class="axis" x1="64" y1="198" x2="600" y2="198" /><text class="tick" x="52" y="198" dominant-baseline="middle" text-anchor="end">20%</text><line class="axis" x1="64" y1="72" x2="600" y2="72" /><text class="tick" x="52" y="72" dominant-baseline="middle" text-anchor="end">40%</text></g><g class="x-ticks"><text class="tick" x="68" y="344" text-anchor="end" transform="rotate(-35 68 344)">10/22/2023</text><text class="tick" x="135" y="344" text-anchor="end" transform="rotate(-35 135 344)">1/19/2024</text><text class="tick" x="202" y="344" text-anchor="end" transform="rotate(-35 202 344)">3/6/2024</text><text class="tick" x="269" y="344" text-anchor="end" transform="rotate(-35 269 344)">7/2/2024</text><text class="tick" x="336" y="344" text-anchor="end" transform="rotate(-35 336 344)">10/23/2024</text><text class="tick" x="403" y="344" text-anchor="end" transform="rotate(-35 403 344)">3/30/2025</text><text class="tick" x="470" y="344" text-anchor="end" transform="rotate(-35 470 344)">8/29/2025</text><text class="tick" x="537" y="344" text-anchor="end" transform="rotate(-35 537 344)">1/16/2026</text><text class="tick" x="604" y="344" text-anchor="end" transform="rotate(-35 604 344)">3/13/2026</text></g><g class="series-group"><g class="series" data-key="corepack_adoption"><polyline fill="none" stroke="#7c6ff6" stroke-width="3" points="64,262.578431372549 131,252.8212927756654 198,246.56603773584905 265,226.41847826086956 332,203.7709923664122 399,185.76631925397697 466,169.53051126992855 533,160.46221248630886 600,154.1858939311099" /><circle cx="64" cy="262.578431372549" r="4" fill="#7c6ff6" /><circle cx="131" cy="252.8212927756654" r="4" fill="#7c6ff6" /><circle cx="198" cy="246.56603773584905" r="4" fill="#7c6ff6" /><circle cx="265" cy="226.41847826086956" r="4" fill="#7c6ff6" /><circle cx="332" cy="203.7709923664122" r="4" fill="#7c6ff6" /><circle cx="399" cy="185.76631925397697" r="4" fill="#7c6ff6" /><circle cx="466" cy="169.53051126992855" r="4" fill="#7c6ff6" /><circle cx="533" cy="160.46221248630886" r="4" fill="#7c6ff6" /><circle cx="600" cy="154.1858939311099" r="4" fill="#7c6ff6" /></g></g><g class="legend-group"><g class="legend-item" data-key="corepack_adoption"><rect x="632" y="62" width="12" height="12" rx="2" fill="#7c6ff6" /><text class="legend" x="650" y="72" dominant-baseline="middle">Adoption</text></g></g></svg>
