<svg xmlns="http://www.w3.org/2000/svg" width="720" height="420" viewBox="0 0 720 420" role="img" aria-label="Corepack &amp; Yarn Switch adoption">
  <style>
    text { font-family: "Helvetica Neue", Arial, sans-serif; }
    .title { font-size: 20px; font-weight: 700; fill: #e2e8f0; }
    .subtitle { font-size: 12px; fill: #cbd5e1; }
    .axis { stroke: #475569; stroke-width: 1; }
    .legend { font-size: 12px; fill: #e2e8f0; }
    .tick { font-size: 12px; fill: #cbd5e1; }
  </style>
<text class="title" x="16" y="24">Corepack &amp; Yarn Switch adoption</text><text class="subtitle" x="16" y="42">10/22/2023 – 1/16/2026</text><g class="y-ticks"><line class="axis" x1="64" y1="356" x2="600" y2="356" /><text class="tick" x="52" y="356" dominant-baseline="middle" text-anchor="end">0%</text><line class="axis" x1="64" y1="214" x2="600" y2="214" /><text class="tick" x="52" y="214" dominant-baseline="middle" text-anchor="end">20%</text><line class="axis" x1="64" y1="72" x2="600" y2="72" /><text class="tick" x="52" y="72" dominant-baseline="middle" text-anchor="end">40%</text></g><g class="x-ticks"><text class="tick" x="64" y="374" text-anchor="middle">2023-10-22</text><text class="tick" x="140.57142857142856" y="374" text-anchor="middle">2024-01-19</text><text class="tick" x="217.14285714285714" y="374" text-anchor="middle">2024-03-06</text><text class="tick" x="293.7142857142857" y="374" text-anchor="middle">2024-07-02</text><text class="tick" x="370.2857142857143" y="374" text-anchor="middle">2024-10-23</text><text class="tick" x="446.85714285714283" y="374" text-anchor="middle">2025-03-30</text><text class="tick" x="523.4285714285714" y="374" text-anchor="middle">2025-08-29</text><text class="tick" x="600" y="374" text-anchor="middle">2026-01-16</text></g><g class="series-group"><g class="series" data-key="corepack_adoption"><polyline fill="none" stroke="#7c6ff6" stroke-width="3" points="64,286.7788671023965 140.57142857142856,275.7827267789245 217.14285714285714,268.733153638814 293.7142857142857,246.0271739130435 370.2857142857143,220.50381679389312 446.85714285714283,200.21283598464072 523.4285714285714,181.91533809785597 600,171.69550930996712" /><circle cx="64" cy="286.7788671023965" r="4" fill="#7c6ff6" /><circle cx="140.57142857142856" cy="275.7827267789245" r="4" fill="#7c6ff6" /><circle cx="217.14285714285714" cy="268.733153638814" r="4" fill="#7c6ff6" /><circle cx="293.7142857142857" cy="246.0271739130435" r="4" fill="#7c6ff6" /><circle cx="370.2857142857143" cy="220.50381679389312" r="4" fill="#7c6ff6" /><circle cx="446.85714285714283" cy="200.21283598464072" r="4" fill="#7c6ff6" /><circle cx="523.4285714285714" cy="181.91533809785597" r="4" fill="#7c6ff6" /><circle cx="600" cy="171.69550930996712" r="4" fill="#7c6ff6" /></g></g><g class="legend-group"><g class="legend-item" data-key="corepack_adoption"><rect x="632" y="62" width="12" height="12" rx="2" fill="#7c6ff6" /><text class="legend" x="650" y="72" dominant-baseline="middle">Adoption</text></g></g></svg>
