<svg xmlns="http://www.w3.org/2000/svg" width="324" height="489" viewBox="0 0 324 489" role="img" aria-label="Package manager popularity over time">
  <style>
    text { font-family: "Helvetica Neue", Arial, sans-serif; }
    .title { font-size: 16px; font-weight: 700; fill: #0f172a; }
    .subtitle { font-size: 12px; fill: #475569; }
    .axis { stroke: #cbd5e1; stroke-width: 1; }
    .footer { font-size: 12px; fill: #94a3b8; }
    .legend { font-size: 12px; fill: #0f172a; }
    .tick { font-size: 12px; fill: #475569; }
  </style>
<text class="title" x="16" y="24">Package manager popularity over time</text><text class="subtitle" x="16" y="42">10/22/2023 – 5/13/2026</text><g class="y-ticks"><line class="axis" x1="64" y1="361" x2="308" y2="361" /><text class="tick" x="52" y="361" dominant-baseline="middle" text-anchor="end">0%</text><line class="axis" x1="64" y1="286" x2="308" y2="286" /><text class="tick" x="52" y="286" dominant-baseline="middle" text-anchor="end">20%</text><line class="axis" x1="64" y1="211" x2="308" y2="211" /><text class="tick" x="52" y="211" dominant-baseline="middle" text-anchor="end">40%</text><line class="axis" x1="64" y1="136" x2="308" y2="136" /><text class="tick" x="52" y="136" dominant-baseline="middle" text-anchor="end">60%</text></g><g class="x-ticks"><text class="tick" x="68" y="381" text-anchor="end" transform="rotate(-35 68 381)">10/22/2023</text><text class="tick" x="134.35546038543896" y="381" text-anchor="end" transform="rotate(-35 134.35546038543896 381)">7/2/2024</text><text class="tick" x="244.8608137044968" y="381" text-anchor="end" transform="rotate(-35 244.8608137044968 381)">8/29/2025</text><text class="tick" x="312" y="381" text-anchor="end" transform="rotate(-35 312 381)">5/13/2026</text></g><g class="series-group"><g class="series" data-key="npm"><polyline fill="none" stroke="#ea2039" stroke-width="3" points="64,182.69117647058823 87.25053533190578,185.61977186311788 99.5289079229122,187.54986522911048 130.35546038543896,187.76630434782606 159.87580299785867,190.26663031624864 201.15203426124197,191.7048820625343 240.8608137044968,186.3848268279274 277.4346895074947,186.6434830230011 292.06423982869376,187.13449972662656 308,186.10934937124114" /><circle cx="64" cy="182.69117647058823" r="4" fill="#ea2039" /><circle cx="87.25053533190578" cy="185.61977186311788" r="4" fill="#ea2039" /><circle cx="99.5289079229122" cy="187.54986522911048" r="4" fill="#ea2039" /><circle cx="130.35546038543896" cy="187.76630434782606" r="4" fill="#ea2039" /><circle cx="159.87580299785867" cy="190.26663031624864" r="4" fill="#ea2039" /><circle cx="201.15203426124197" cy="191.7048820625343" r="4" fill="#ea2039" /><circle cx="240.8608137044968" cy="186.3848268279274" r="4" fill="#ea2039" /><circle cx="277.4346895074947" cy="186.6434830230011" r="4" fill="#ea2039" /><circle cx="292.06423982869376" cy="187.13449972662656" r="4" fill="#ea2039" /><circle cx="308" cy="186.10934937124114" r="4" fill="#ea2039" /></g><g class="series" data-key="pnpm"><polyline fill="none" stroke="#f9ad00" stroke-width="3" points="64,318.1078431372549 87.25053533190578,312.1135252580119 99.5289079229122,310.46091644204853 130.35546038543896,303.1195652173913 159.87580299785867,298.4318429661941 201.15203426124197,293.7345035655513 240.8608137044968,287.6080263881253 277.4346895074947,283.5766703176342 292.06423982869376,282.06342263531985 308,281.0382722799344" /><circle cx="64" cy="318.1078431372549" r="4" fill="#f9ad00" /><circle cx="87.25053533190578" cy="312.1135252580119" r="4" fill="#f9ad00" /><circle cx="99.5289079229122" cy="310.46091644204853" r="4" fill="#f9ad00" /><circle cx="130.35546038543896" cy="303.1195652173913" r="4" fill="#f9ad00" /><circle cx="159.87580299785867" cy="298.4318429661941" r="4" fill="#f9ad00" /><circle cx="201.15203426124197" cy="293.7345035655513" r="4" fill="#f9ad00" /><circle cx="240.8608137044968" cy="287.6080263881253" r="4" fill="#f9ad00" /><circle cx="277.4346895074947" cy="283.5766703176342" r="4" fill="#f9ad00" /><circle cx="292.06423982869376" cy="282.06342263531985" r="4" fill="#f9ad00" /><circle cx="308" cy="281.0382722799344" r="4" fill="#f9ad00" /></g><g class="series" data-key="yarn_classic"><polyline fill="none" stroke="#2c8ebb" stroke-width="3" points="64,264.79901960784315 87.25053533190578,267.09722976643127 99.5289079229122,271.2425876010782 130.35546038543896,276.8288043478261 159.87580299785867,280.43838604143946 201.15203426124197,284.88919363686233 240.8608137044968,291.1126992853216 277.4346895074947,297.7469879518072 292.06423982869376,300.31109896118096 308,304.20667031164567" /><circle cx="64" cy="264.79901960784315" r="4" fill="#2c8ebb" /><circle cx="87.25053533190578" cy="267.09722976643127" r="4" fill="#2c8ebb" /><circle cx="99.5289079229122" cy="271.2425876010782" r="4" fill="#2c8ebb" /><circle cx="130.35546038543896" cy="276.8288043478261" r="4" fill="#2c8ebb" /><circle cx="159.87580299785867" cy="280.43838604143946" r="4" fill="#2c8ebb" /><circle cx="201.15203426124197" cy="284.88919363686233" r="4" fill="#2c8ebb" /><circle cx="240.8608137044968" cy="291.1126992853216" r="4" fill="#2c8ebb" /><circle cx="277.4346895074947" cy="297.7469879518072" r="4" fill="#2c8ebb" /><circle cx="292.06423982869376" cy="300.31109896118096" r="4" fill="#2c8ebb" /><circle cx="308" cy="304.20667031164567" r="4" fill="#2c8ebb" /></g><g class="series" data-key="yarn_modern"><polyline fill="none" stroke="#2f2a68" stroke-width="3" points="64,345.6813725490196 87.25053533190578,344.9082020640956 99.5289079229122,342.19946091644204 130.35546038543896,342.25 159.87580299785867,340.9618320610687 201.15203426124197,339.60669226549646 240.8608137044968,339.3534909290819 277.4346895074947,339.23110624315444 292.06423982869376,339.6768726079825 308,340.49699289229085" /><circle cx="64" cy="345.6813725490196" r="4" fill="#2f2a68" /><circle cx="87.25053533190578" cy="344.9082020640956" r="4" fill="#2f2a68" /><circle cx="99.5289079229122" cy="342.19946091644204" r="4" fill="#2f2a68" /><circle cx="130.35546038543896" cy="342.25" r="4" fill="#2f2a68" /><circle cx="159.87580299785867" cy="340.9618320610687" r="4" fill="#2f2a68" /><circle cx="201.15203426124197" cy="339.60669226549646" r="4" fill="#2f2a68" /><circle cx="240.8608137044968" cy="339.3534909290819" r="4" fill="#2f2a68" /><circle cx="277.4346895074947" cy="339.23110624315444" r="4" fill="#2f2a68" /><circle cx="292.06423982869376" cy="339.6768726079825" r="4" fill="#2f2a68" /><circle cx="308" cy="340.49699289229085" r="4" fill="#2f2a68" /></g><g class="series" data-key="bun"><polyline fill="none" stroke="#f472b6" stroke-width="3" points="64,360.1830065359477 87.25053533190578,360.18522542096684 99.5289079229122,360.1913746630728 130.35546038543896,359.1657608695652 159.87580299785867,358.34187568157034 201.15203426124197,357.914426769062 240.8608137044968,355.846069268829 277.4346895074947,353.81215772179627 292.06423982869376,351.15855658829963 308,347.87807545106614" /><circle cx="64" cy="360.1830065359477" r="4" fill="#f472b6" /><circle cx="87.25053533190578" cy="360.18522542096684" r="4" fill="#f472b6" /><circle cx="99.5289079229122" cy="360.1913746630728" r="4" fill="#f472b6" /><circle cx="130.35546038543896" cy="359.1657608695652" r="4" fill="#f472b6" /><circle cx="159.87580299785867" cy="358.34187568157034" r="4" fill="#f472b6" /><circle cx="201.15203426124197" cy="357.914426769062" r="4" fill="#f472b6" /><circle cx="240.8608137044968" cy="355.846069268829" r="4" fill="#f472b6" /><circle cx="277.4346895074947" cy="353.81215772179627" r="4" fill="#f472b6" /><circle cx="292.06423982869376" cy="351.15855658829963" r="4" fill="#f472b6" /><circle cx="308" cy="347.87807545106614" r="4" fill="#f472b6" /></g></g><g class="legend-group"><g class="legend-item" data-key="npm"><rect x="16" y="62" width="12" height="12" rx="2" fill="#ea2039" /><text class="legend" x="34" y="72" dominant-baseline="middle">npm</text></g><g class="legend-item" data-key="pnpm"><rect x="68.88" y="62" width="12" height="12" rx="2" fill="#f9ad00" /><text class="legend" x="86.88" y="72" dominant-baseline="middle">pnpm</text></g><g class="legend-item" data-key="yarn_classic"><rect x="128.72" y="62" width="12" height="12" rx="2" fill="#2c8ebb" /><text class="legend" x="146.72" y="72" dominant-baseline="middle">Yarn Classic</text></g><g class="legend-item" data-key="yarn_modern"><rect x="16" y="82" width="12" height="12" rx="2" fill="#2f2a68" /><text class="legend" x="34" y="92" dominant-baseline="middle">Yarn (Berry)</text></g><g class="legend-item" data-key="bun"><rect x="131.51999999999998" y="82" width="12" height="12" rx="2" fill="#f472b6" /><text class="legend" x="149.51999999999998" y="92" dominant-baseline="middle">Bun</text></g></g><text class="footer" x="16" y="461">* npm &amp; pnpm values before 3/13/2026 are<tspan x="16" dy="14">corrected estimates</tspan></text></svg>
