<svg xmlns="http://www.w3.org/2000/svg" width="720" height="293" viewBox="0 0 720 293" role="img" aria-label="pnpm versions">
  <style>
    text { font-family: "Helvetica Neue", Arial, sans-serif; }
    .title { font-size: 20px; font-weight: 700; fill: #e2e8f0; }
    .subtitle { font-size: 12px; fill: #cbd5e1; }
    .footer { font-size: 12px; fill: #cbd5e1; }
    .label { font-size: 12px; text-anchor: end; fill: #e2e8f0; }
    .value { font-size: 12px; fill: #e2e8f0; }
  </style>
<text class="title" x="16" y="24">pnpm versions</text><text class="subtitle" x="16" y="42">5/13/2026</text><g class="bars"><g class="bar" data-label="9 or 10 or 11"><text class="label" x="100" y="78" dominant-baseline="middle">9 or 10 or 11</text><rect x="110" y="64" width="470" height="28" rx="6" fill="#f9ad00" /><text class="value" x="588" y="78" dominant-baseline="middle">355 (91.0%)</text><clipPath id="mini-bar-dark-0-9-or-10-or-11"><rect x="110" y="98" width="470" height="11" rx="4" /></clipPath><rect x="110" y="98" width="470" height="11" rx="4" fill="#475569" opacity="0.25" /><g clip-path="url(#mini-bar-dark-0-9-or-10-or-11)"><rect x="110" y="98" width="76.78873239436619" height="11" fill="#f9ad00" /><text x="148.3943661971831" y="104.5" text-anchor="middle" dominant-baseline="middle" font-size="9" fill="#111827">9</text><rect x="186.7887323943662" y="98" width="252.87323943661968" height="11" fill="#f9ad00" /><line x1="186.7887323943662" y1="98" x2="186.7887323943662" y2="109" stroke="#0f172a" stroke-width="1" /><text x="313.22535211267603" y="104.5" text-anchor="middle" dominant-baseline="middle" font-size="9" fill="#111827">10</text><rect x="439.66197183098586" y="98" width="42.36619718309859" height="11" fill="#f9ad00" /><line x1="439.66197183098586" y1="98" x2="439.66197183098586" y2="109" stroke="#0f172a" stroke-width="1" /><text x="460.8450704225352" y="104.5" text-anchor="middle" dominant-baseline="middle" font-size="9" fill="#111827">11</text></g></g><g class="bar" data-label="8"><text class="label" x="100" y="135" dominant-baseline="middle">8</text><rect x="110" y="121" width="37.07042253521127" height="28" rx="6" fill="#f9ad00" /><text class="value" x="155.07042253521126" y="135" dominant-baseline="middle">28 (7.2%)</text></g><g class="bar" data-label="7"><text class="label" x="100" y="175" dominant-baseline="middle">7</text><rect x="110" y="161" width="5.295774647887324" height="28" rx="6" fill="#f9ad00" /><text class="value" x="123.29577464788733" y="175" dominant-baseline="middle">4 (1.0%)</text></g><g class="bar" data-label="6"><text class="label" x="100" y="215" dominant-baseline="middle">6</text><rect x="110" y="201" width="3.9718309859154926" height="28" rx="6" fill="#f9ad00" /><text class="value" x="121.97183098591549" y="215" dominant-baseline="middle">3 (0.8%)</text></g></g><text class="footer" x="16" y="253">* pnpm version cannot always be accurately derived; may be guessed from lockfile</text></svg>
