<svg xmlns="http://www.w3.org/2000/svg" width="720" height="420" viewBox="0 0 720 420" role="img" aria-label="Package manager popularity over time">
  <style>
    text { font-family: "Helvetica Neue", Arial, sans-serif; }
    .title { font-size: 20px; font-weight: 700; fill: #0f172a; }
    .subtitle { font-size: 12px; fill: #475569; }
    .axis { stroke: #cbd5e1; stroke-width: 1; }
    .footer { font-size: 12px; fill: #94a3b8; }
    .legend { font-size: 12px; fill: #0f172a; }
    .tick { font-size: 12px; fill: #475569; }
  </style>
<text class="title" x="16" y="24">Package manager popularity over time</text><text class="subtitle" x="16" y="42">10/22/2023 – 3/13/2026</text><g class="y-ticks"><line class="axis" x1="64" y1="304" x2="600" y2="304" /><text class="tick" x="52" y="304" dominant-baseline="middle" text-anchor="end">0%</text><line class="axis" x1="64" y1="226.66666666666669" x2="600" y2="226.66666666666669" /><text class="tick" x="52" y="226.66666666666669" dominant-baseline="middle" text-anchor="end">20%</text><line class="axis" x1="64" y1="149.33333333333334" x2="600" y2="149.33333333333334" /><text class="tick" x="52" y="149.33333333333334" dominant-baseline="middle" text-anchor="end">40%</text><line class="axis" x1="64" y1="72" x2="600" y2="72" /><text class="tick" x="52" y="72" dominant-baseline="middle" text-anchor="end">60%</text></g><g class="x-ticks"><text class="tick" x="68" y="324" text-anchor="end" transform="rotate(-35 68 324)">10/22/2023</text><text class="tick" x="122.64375715922108" y="324" text-anchor="end" transform="rotate(-35 122.64375715922108 324)">1/19/2024</text><text class="tick" x="151.50057273768613" y="324" text-anchor="end" transform="rotate(-35 151.50057273768613 324)">3/6/2024</text><text class="tick" x="223.94959908361972" y="324" text-anchor="end" transform="rotate(-35 223.94959908361972 324)">7/2/2024</text><text class="tick" x="293.32875143184424" y="324" text-anchor="end" transform="rotate(-35 293.32875143184424 324)">10/23/2024</text><text class="tick" x="390.33676975945014" y="324" text-anchor="end" transform="rotate(-35 390.33676975945014 324)">3/30/2025</text><text class="tick" x="483.6609392898053" y="324" text-anchor="end" transform="rotate(-35 483.6609392898053 324)">8/29/2025</text><text class="tick" x="569.6174112256587" y="324" text-anchor="end" transform="rotate(-35 569.6174112256587 324)">1/16/2026</text><text class="tick" x="604" y="324" text-anchor="end" transform="rotate(-35 604 324)">3/13/2026</text></g><g class="series-group"><g class="series" data-key="npm"><polyline fill="none" stroke="#ea2039" stroke-width="3" points="64,120.14379084967322 118.64375715922108,123.16349809885932 147.50057273768613,125.15363881401615 219.94959908361972,125.37681159420288 289.32875143184424,127.95492548164304 386.33676975945014,129.43792283781312 479.6609392898053,123.95235477368516 565.6174112256587,124.21905805038335 600,124.72535082923272" /><circle cx="64" cy="120.14379084967322" r="4" fill="#ea2039" /><circle cx="118.64375715922108" cy="123.16349809885932" r="4" fill="#ea2039" /><circle cx="147.50057273768613" cy="125.15363881401615" r="4" fill="#ea2039" /><circle cx="219.94959908361972" cy="125.37681159420288" r="4" fill="#ea2039" /><circle cx="289.32875143184424" cy="127.95492548164304" r="4" fill="#ea2039" /><circle cx="386.33676975945014" cy="129.43792283781312" r="4" fill="#ea2039" /><circle cx="479.6609392898053" cy="123.95235477368516" r="4" fill="#ea2039" /><circle cx="565.6174112256587" cy="124.21905805038335" r="4" fill="#ea2039" /><circle cx="600" cy="124.72535082923272" r="4" fill="#ea2039" /></g><g class="series" data-key="pnpm"><polyline fill="none" stroke="#f9ad00" stroke-width="3" points="64,259.77342047930284 118.64375715922108,253.59261271048342 147.50057273768613,251.88858939802336 219.94959908361972,244.31884057971016 289.32875143184424,239.48527808069792 386.33676975945014,234.6417992320351 479.6609392898053,228.3247205424226 565.6174112256587,224.16794450529392 600,222.60761800619645" /><circle cx="64" cy="259.77342047930284" r="4" fill="#f9ad00" /><circle cx="118.64375715922108" cy="253.59261271048342" r="4" fill="#f9ad00" /><circle cx="147.50057273768613" cy="251.88858939802336" r="4" fill="#f9ad00" /><circle cx="219.94959908361972" cy="244.31884057971016" r="4" fill="#f9ad00" /><circle cx="289.32875143184424" cy="239.48527808069792" r="4" fill="#f9ad00" /><circle cx="386.33676975945014" cy="234.6417992320351" r="4" fill="#f9ad00" /><circle cx="479.6609392898053" cy="228.3247205424226" r="4" fill="#f9ad00" /><circle cx="565.6174112256587" cy="224.16794450529392" r="4" fill="#f9ad00" /><circle cx="600" cy="222.60761800619645" r="4" fill="#f9ad00" /></g><g class="series" data-key="yarn_classic"><polyline fill="none" stroke="#2c8ebb" stroke-width="3" points="64,204.80610021786492 118.64375715922108,207.1758102480536 147.50057273768613,211.4501347708895 219.94959908361972,217.21014492753625 289.32875143184424,220.93202471828425 386.33676975945014,225.52130188334246 479.6609392898053,231.93842770753162 565.6174112256587,238.77911646586347 600,241.42299981775105" /><circle cx="64" cy="204.80610021786492" r="4" fill="#2c8ebb" /><circle cx="118.64375715922108" cy="207.1758102480536" r="4" fill="#2c8ebb" /><circle cx="147.50057273768613" cy="211.4501347708895" r="4" fill="#2c8ebb" /><circle cx="219.94959908361972" cy="217.21014492753625" r="4" fill="#2c8ebb" /><circle cx="289.32875143184424" cy="220.93202471828425" r="4" fill="#2c8ebb" /><circle cx="386.33676975945014" cy="225.52130188334246" r="4" fill="#2c8ebb" /><circle cx="479.6609392898053" cy="231.93842770753162" r="4" fill="#2c8ebb" /><circle cx="565.6174112256587" cy="238.77911646586347" r="4" fill="#2c8ebb" /><circle cx="600" cy="241.42299981775105" r="4" fill="#2c8ebb" /></g><g class="series" data-key="yarn_modern"><polyline fill="none" stroke="#2f2a68" stroke-width="3" points="64,288.20479302832246 118.64375715922108,287.4075683505341 147.50057273768613,284.6145552560647 219.94959908361972,284.6666666666667 289.32875143184424,283.33842239185753 386.33676975945014,281.94112269153413 479.6609392898053,281.6800439802089 565.6174112256587,281.55385177071923 600,282.01348642245307" /><circle cx="64" cy="288.20479302832246" r="4" fill="#2f2a68" /><circle cx="118.64375715922108" cy="287.4075683505341" r="4" fill="#2f2a68" /><circle cx="147.50057273768613" cy="284.6145552560647" r="4" fill="#2f2a68" /><circle cx="219.94959908361972" cy="284.6666666666667" r="4" fill="#2f2a68" /><circle cx="289.32875143184424" cy="283.33842239185753" r="4" fill="#2f2a68" /><circle cx="386.33676975945014" cy="281.94112269153413" r="4" fill="#2f2a68" /><circle cx="479.6609392898053" cy="281.6800439802089" r="4" fill="#2f2a68" /><circle cx="565.6174112256587" cy="281.55385177071923" r="4" fill="#2f2a68" /><circle cx="600" cy="282.01348642245307" r="4" fill="#2f2a68" /></g><g class="series" data-key="bun"><polyline fill="none" stroke="#f472b6" stroke-width="3" points="64,303.15758896151056 118.64375715922108,303.15987687850804 147.50057273768613,303.16621743036836 219.94959908361972,302.10869565217394 289.32875143184424,301.2591784805525 386.33676975945014,300.8184311574328 479.6609392898053,298.6857247571926 565.6174112256587,296.58853596202994 600,293.8523783488245" /><circle cx="64" cy="303.15758896151056" r="4" fill="#f472b6" /><circle cx="118.64375715922108" cy="303.15987687850804" r="4" fill="#f472b6" /><circle cx="147.50057273768613" cy="303.16621743036836" r="4" fill="#f472b6" /><circle cx="219.94959908361972" cy="302.10869565217394" r="4" fill="#f472b6" /><circle cx="289.32875143184424" cy="301.2591784805525" r="4" fill="#f472b6" /><circle cx="386.33676975945014" cy="300.8184311574328" r="4" fill="#f472b6" /><circle cx="479.6609392898053" cy="298.6857247571926" r="4" fill="#f472b6" /><circle cx="565.6174112256587" cy="296.58853596202994" r="4" fill="#f472b6" /><circle cx="600" cy="293.8523783488245" r="4" fill="#f472b6" /></g></g><g class="legend-group"><g class="legend-item" data-key="npm"><rect x="632" y="62" width="12" height="12" rx="2" fill="#ea2039" /><text class="legend" x="650" y="72" dominant-baseline="middle">npm</text></g><g class="legend-item" data-key="pnpm"><rect x="632" y="82" width="12" height="12" rx="2" fill="#f9ad00" /><text class="legend" x="650" y="92" dominant-baseline="middle">pnpm</text></g><g class="legend-item" data-key="yarn_classic"><rect x="632" y="102" width="12" height="12" rx="2" fill="#2c8ebb" /><text class="legend" x="650" y="112" dominant-baseline="middle">Yarn Classic</text></g><g class="legend-item" data-key="yarn_modern"><rect x="632" y="122" width="12" height="12" rx="2" fill="#2f2a68" /><text class="legend" x="650" y="132" dominant-baseline="middle">Yarn (Berry)</text></g><g class="legend-item" data-key="bun"><rect x="632" y="142" width="12" height="12" rx="2" fill="#f472b6" /><text class="legend" x="650" y="152" dominant-baseline="middle">Bun</text></g></g><text class="footer" x="16" y="404">* npm &amp; pnpm values before 3/13/2026 are corrected estimates</text></svg>
