<svg xmlns="http://www.w3.org/2000/svg" width="324" height="449" viewBox="0 0 324 449" role="img" aria-label="pnpm versions">
  <style>
    text { font-family: "Helvetica Neue", Arial, sans-serif; }
    .title { font-size: 16px; font-weight: 700; fill: #e2e8f0; }
    .subtitle { font-size: 12px; fill: #cbd5e1; }
    .footer { font-size: 12px; fill: #cbd5e1; }
    .label { font-size: 12px; fill: #e2e8f0; }
    .value { font-size: 12px; fill: #e2e8f0; }
  </style>
<text class="title" x="16" y="24">pnpm versions</text><text class="subtitle" x="16" y="42">5/13/2026</text><g class="bars"><g class="bar" data-label="9 or 10 or 11"><text class="label" x="16" y="72" text-anchor="start" dominant-baseline="middle">9 or 10 or 11</text><text class="value" x="308" y="72" text-anchor="end" dominant-baseline="middle">355 (91.0%)</text><rect x="16" y="90" width="292" height="28" rx="6" fill="#f9ad00" /><clipPath id="mini-bar-dark-0-9-or-10-or-11"><rect x="16" y="124" width="292" height="11" rx="4" /></clipPath><rect x="16" y="124" width="292" height="11" rx="4" fill="#475569" opacity="0.25" /><g clip-path="url(#mini-bar-dark-0-9-or-10-or-11)"><rect x="16" y="124" width="47.70704225352113" height="11" fill="#f9ad00" /><text x="39.85352112676057" y="130.5" text-anchor="middle" dominant-baseline="middle" font-size="9" fill="#111827">9</text><rect x="63.70704225352113" y="124" width="157.10422535211265" height="11" fill="#f9ad00" /><line x1="63.70704225352113" y1="124" x2="63.70704225352113" y2="135" stroke="#0f172a" stroke-width="1" /><text x="142.25915492957745" y="130.5" text-anchor="middle" dominant-baseline="middle" font-size="9" fill="#111827">10</text><rect x="220.8112676056338" y="124" width="26.32112676056338" height="11" fill="#f9ad00" /><line x1="220.8112676056338" y1="124" x2="220.8112676056338" y2="135" stroke="#0f172a" stroke-width="1" /><text x="233.9718309859155" y="130.5" text-anchor="middle" dominant-baseline="middle" font-size="9" fill="#111827">11</text></g></g><g class="bar" data-label="8"><text class="label" x="16" y="159" text-anchor="start" dominant-baseline="middle">8</text><text class="value" x="308" y="159" text-anchor="end" dominant-baseline="middle">28 (7.2%)</text><rect x="16" y="177" width="23.03098591549296" height="28" rx="6" fill="#f9ad00" /></g><g class="bar" data-label="7"><text class="label" x="16" y="229" text-anchor="start" dominant-baseline="middle">7</text><text class="value" x="308" y="229" text-anchor="end" dominant-baseline="middle">4 (1.0%)</text><rect x="16" y="247" width="3.2901408450704226" height="28" rx="6" fill="#f9ad00" /></g><g class="bar" data-label="6"><text class="label" x="16" y="299" text-anchor="start" dominant-baseline="middle">6</text><text class="value" x="308" y="299" text-anchor="end" dominant-baseline="middle">3 (0.8%)</text><rect x="16" y="317" width="2.4676056338028167" height="28" rx="6" fill="#f9ad00" /></g></g><text class="footer" x="16" y="401">* pnpm version cannot always be<tspan x="16" dy="14">accurately derived; may be guessed from</tspan><tspan x="16" dy="14">lockfile</tspan></text></svg>
