<svg xmlns="http://www.w3.org/2000/svg" width="324" height="489" viewBox="0 0 324 489" role="img" aria-label="Package manager popularity over time, weighted by package count">
  <style>
    text { font-family: "Helvetica Neue", Arial, sans-serif; }
    .title { font-size: 16px; font-weight: 700; fill: #e2e8f0; }
    .subtitle { font-size: 12px; fill: #cbd5e1; }
    .axis { stroke: #475569; stroke-width: 1; }
    .footer { font-size: 12px; fill: #cbd5e1; }
    .legend { font-size: 12px; fill: #e2e8f0; }
    .tick { font-size: 12px; fill: #cbd5e1; }
  </style>
<text class="title" x="16" y="24">Package manager popularity over time,<tspan x="16" dy="18">weighted by package count</tspan></text><text class="subtitle" x="16" y="60">5/13/2026 – 5/13/2026</text><g class="y-ticks"><line class="axis" x1="64" y1="425" x2="308" y2="425" /><text class="tick" x="52" y="425" dominant-baseline="middle" text-anchor="end">0%</text><line class="axis" x1="64" y1="357.25" x2="308" y2="357.25" /><text class="tick" x="52" y="357.25" dominant-baseline="middle" text-anchor="end">20%</text><line class="axis" x1="64" y1="289.5" x2="308" y2="289.5" /><text class="tick" x="52" y="289.5" dominant-baseline="middle" text-anchor="end">40%</text><line class="axis" x1="64" y1="221.75" x2="308" y2="221.75" /><text class="tick" x="52" y="221.75" dominant-baseline="middle" text-anchor="end">60%</text><line class="axis" x1="64" y1="154" x2="308" y2="154" /><text class="tick" x="52" y="154" dominant-baseline="middle" text-anchor="end">80%</text></g><g class="x-ticks"><text class="tick" x="64" y="443" text-anchor="middle">5/13/2026</text></g><g class="series-group"><g class="series" data-key="pnpm"><polyline fill="none" stroke="#f9ad00" stroke-width="3" points="64,183.01211185173145" /><circle cx="64" cy="183.01211185173145" r="4" fill="#f9ad00" /></g><g class="series" data-key="yarn_modern"><polyline fill="none" stroke="#7c6ff6" stroke-width="3" points="64,394.3907901154284" /><circle cx="64" cy="394.3907901154284" r="4" fill="#7c6ff6" /></g><g class="series" data-key="npm"><polyline fill="none" stroke="#ea2039" stroke-width="3" points="64,401.56120955942123" /><circle cx="64" cy="401.56120955942123" r="4" fill="#ea2039" /></g><g class="series" data-key="yarn_classic"><polyline fill="none" stroke="#2c8ebb" stroke-width="3" points="64,403.0922207771094" /><circle cx="64" cy="403.0922207771094" r="4" fill="#2c8ebb" /></g><g class="series" data-key="bun"><polyline fill="none" stroke="#f472b6" stroke-width="3" points="64,406.3084457811738" /><circle cx="64" cy="406.3084457811738" r="4" fill="#f472b6" /></g></g><g class="legend-group"><g class="legend-item" data-key="pnpm"><rect x="16" y="80" width="12" height="12" rx="2" fill="#f9ad00" /><text class="legend" x="34" y="90" dominant-baseline="middle">pnpm</text></g><g class="legend-item" data-key="yarn_modern"><rect x="75.84" y="80" width="12" height="12" rx="2" fill="#7c6ff6" /><text class="legend" x="93.84" y="90" dominant-baseline="middle">Yarn (Berry)</text></g><g class="legend-item" data-key="npm"><rect x="191.36" y="80" width="12" height="12" rx="2" fill="#ea2039" /><text class="legend" x="209.36" y="90" dominant-baseline="middle">npm</text></g><g class="legend-item" data-key="yarn_classic"><rect x="16" y="100" width="12" height="12" rx="2" fill="#2c8ebb" /><text class="legend" x="34" y="110" dominant-baseline="middle">Yarn Classic</text></g><g class="legend-item" data-key="bun"><rect x="131.51999999999998" y="100" width="12" height="12" rx="2" fill="#f472b6" /><text class="legend" x="149.51999999999998" y="110" dominant-baseline="middle">Bun</text></g></g></svg>
