<svg xmlns="http://www.w3.org/2000/svg" width="324" height="363" viewBox="0 0 324 363" role="img" aria-label="npm versions">
  <style>
    text { font-family: "Helvetica Neue", Arial, sans-serif; }
    .title { font-size: 16px; font-weight: 700; fill: #0f172a; }
    .subtitle { font-size: 12px; fill: #475569; }
    .footer { font-size: 12px; fill: #94a3b8; }
    .label { font-size: 12px; fill: #0f172a; }
    .value { font-size: 12px; fill: #0f172a; }
  </style>
<text class="title" x="16" y="24">npm versions</text><text class="subtitle" x="16" y="42">5/13/2026</text><g class="bars"><g class="bar" data-label="9 or 10 or 11"><text class="label" x="16" y="72" text-anchor="start" dominant-baseline="middle">9 or 10 or 11</text><text class="value" x="308" y="72" text-anchor="end" dominant-baseline="middle">419 (61.0%)</text><rect x="16" y="90" width="292" height="28" rx="6" fill="#ea2039" /><clipPath id="mini-bar-light-0-9-or-10-or-11"><rect x="16" y="124" width="292" height="11" rx="4" /></clipPath><rect x="16" y="124" width="292" height="11" rx="4" fill="#cbd5e1" opacity="0.25" /><g clip-path="url(#mini-bar-light-0-9-or-10-or-11)"><rect x="16" y="124" width="0.6968973747016707" height="11" fill="#ea2039" /><rect x="16.69689737470167" y="124" width="8.362768496420047" height="11" fill="#ea2039" /><line x1="16.69689737470167" y1="124" x2="16.69689737470167" y2="135" stroke="#ffffff" stroke-width="1" /><rect x="25.059665871121716" y="124" width="6.272076372315035" height="11" fill="#ea2039" /><line x1="25.059665871121716" y1="124" x2="25.059665871121716" y2="135" stroke="#ffffff" stroke-width="1" /></g></g><g class="bar" data-label="7 or 8"><text class="label" x="16" y="159" text-anchor="start" dominant-baseline="middle">7 or 8</text><text class="value" x="308" y="159" text-anchor="end" dominant-baseline="middle">162 (23.6%)</text><rect x="16" y="177" width="112.89737470167064" height="28" rx="6" fill="#ea2039" /></g><g class="bar" data-label="5 or 6"><text class="label" x="16" y="229" text-anchor="start" dominant-baseline="middle">5 or 6</text><text class="value" x="308" y="229" text-anchor="end" dominant-baseline="middle">106 (15.4%)</text><rect x="16" y="247" width="73.87112171837708" height="28" rx="6" fill="#ea2039" /></g></g><text class="footer" x="16" y="315">* npm version cannot always be accurately<tspan x="16" dy="14">derived; may be guessed from lockfile</tspan></text></svg>
