<svg xmlns="http://www.w3.org/2000/svg" width="720" height="333" viewBox="0 0 720 333" role="img" aria-label="pnpm versions">
  <style>
    text { font-family: "Helvetica Neue", Arial, sans-serif; }
    .title { font-size: 20px; font-weight: 700; fill: #e2e8f0; }
    .subtitle { font-size: 12px; fill: #cbd5e1; }
    .footer { font-size: 12px; fill: #cbd5e1; }
    .label { font-size: 12px; text-anchor: end; fill: #e2e8f0; }
    .value { font-size: 12px; fill: #e2e8f0; }
  </style>
<text class="title" x="16" y="24">pnpm versions</text><text class="subtitle" x="16" y="42">3/13/2026</text><g class="bars"><g class="bar" data-label="11"><text class="label" x="100" y="78" dominant-baseline="middle">11</text><rect x="110" y="64" width="1.3662790697674418" height="28" rx="6" fill="#f9ad00" /><text class="value" x="119.36627906976744" y="78" dominant-baseline="middle">1 (0.3%)</text></g><g class="bar" data-label="9 or 10"><text class="label" x="100" y="118" dominant-baseline="middle">9 or 10</text><rect x="110" y="104" width="470" height="28" rx="6" fill="#f9ad00" /><text class="value" x="588" y="118" dominant-baseline="middle">344 (89.4%)</text><clipPath id="mini-bar-dark-1-9-or-10"><rect x="110" y="138" width="470" height="11" rx="4" /></clipPath><rect x="110" y="138" width="470" height="11" rx="4" fill="#475569" opacity="0.25" /><g clip-path="url(#mini-bar-dark-1-9-or-10)"><rect x="110" y="138" width="90.17441860465117" height="11" fill="#f9ad00" /><text x="155.0872093023256" y="144.5" text-anchor="middle" dominant-baseline="middle" font-size="9" fill="#111827">9</text><rect x="200.17441860465118" y="138" width="275.98837209302326" height="11" fill="#f9ad00" /><line x1="200.17441860465118" y1="138" x2="200.17441860465118" y2="149" stroke="#0f172a" stroke-width="1" /><text x="338.1686046511628" y="144.5" text-anchor="middle" dominant-baseline="middle" font-size="9" fill="#111827">10</text></g></g><g class="bar" data-label="8"><text class="label" x="100" y="175" dominant-baseline="middle">8</text><rect x="110" y="161" width="45.08720930232558" height="28" rx="6" fill="#f9ad00" /><text class="value" x="163.0872093023256" y="175" dominant-baseline="middle">33 (8.6%)</text></g><g class="bar" data-label="7"><text class="label" x="100" y="215" dominant-baseline="middle">7</text><rect x="110" y="201" width="5.465116279069767" height="28" rx="6" fill="#f9ad00" /><text class="value" x="123.46511627906976" y="215" dominant-baseline="middle">4 (1.0%)</text></g><g class="bar" data-label="6"><text class="label" x="100" y="255" dominant-baseline="middle">6</text><rect x="110" y="241" width="4.098837209302325" height="28" rx="6" fill="#f9ad00" /><text class="value" x="122.09883720930233" y="255" dominant-baseline="middle">3 (0.8%)</text></g></g><text class="footer" x="16" y="293">* pnpm version cannot always be accurately derived; may be guessed from lockfile</text></svg>
