<svg xmlns="http://www.w3.org/2000/svg" width="838" height="302" viewBox="0 0 838 302" role="img" aria-label="npm versions">
  <style>
    text { font-family: "Helvetica Neue", Arial, sans-serif; }
    .title { font-size: 20px; font-weight: 700; fill: #e2e8f0; }
    .subtitle { font-size: 12px; fill: #cbd5e1; }
    .footer { font-size: 12px; fill: #cbd5e1; }
    .label { font-size: 12px; text-anchor: end; fill: #e2e8f0; }
    .value { font-size: 12px; fill: #e2e8f0; }
  </style>
<text class="title" x="16" y="24">npm versions</text><text class="subtitle" x="16" y="42">5/13/2026</text><g class="bars"><g class="bar" data-label="9 or 10 or 11"><text class="label" x="100" y="86" dominant-baseline="middle">9 or 10 or 11</text><rect x="110" y="72" width="568" height="28" rx="6" fill="#ea2039" /><text class="value" x="686" y="86" dominant-baseline="middle">419 (61.0%)</text><clipPath id="mini-bar-dark-0-9-or-10-or-11"><rect x="110" y="106" width="568" height="11" rx="4" /></clipPath><rect x="110" y="106" width="568" height="11" rx="4" fill="#475569" opacity="0.25" /><g clip-path="url(#mini-bar-dark-0-9-or-10-or-11)"><rect x="110" y="106" width="1.3556085918854417" height="11" fill="#ea2039" /><rect x="111.35560859188544" y="106" width="16.2673031026253" height="11" fill="#ea2039" /><line x1="111.35560859188544" y1="106" x2="111.35560859188544" y2="117" stroke="#0f172a" stroke-width="1" /><rect x="127.62291169451075" y="106" width="12.200477326968972" height="11" fill="#ea2039" /><line x1="127.62291169451075" y1="106" x2="127.62291169451075" y2="117" stroke="#0f172a" stroke-width="1" /></g></g><g class="bar" data-label="7 or 8"><text class="label" x="100" y="151" dominant-baseline="middle">7 or 8</text><rect x="110" y="137" width="219.6085918854415" height="28" rx="6" fill="#ea2039" /><text class="value" x="337.6085918854415" y="151" dominant-baseline="middle">162 (23.6%)</text><clipPath id="mini-bar-dark-1-7-or-8"><rect x="110" y="171" width="219.6085918854415" height="11" rx="4" /></clipPath><rect x="110" y="171" width="219.6085918854415" height="11" rx="4" fill="#475569" opacity="0.25" /><g clip-path="url(#mini-bar-dark-1-7-or-8)"><rect x="110" y="171" width="1.3556085918854415" height="11" fill="#ea2039" /></g></g><g class="bar" data-label="5 or 6"><text class="label" x="100" y="216" dominant-baseline="middle">5 or 6</text><rect x="110" y="202" width="143.69451073985678" height="28" rx="6" fill="#ea2039" /><text class="value" x="261.6945107398568" y="216" dominant-baseline="middle">106 (15.4%)</text></g></g><text class="footer" x="16" y="254">* npm version cannot always be accurately derived; may be guessed from lockfile</text></svg>
