<svg xmlns="http://www.w3.org/2000/svg" width="720" height="420" viewBox="0 0 720 420" role="img" aria-label="Package manager popularity over time">
  <style>
    text { font-family: "Helvetica Neue", Arial, sans-serif; }
    .title { font-size: 20px; font-weight: 700; fill: #0f172a; }
    .subtitle { font-size: 12px; fill: #475569; }
    .axis { stroke: #cbd5e1; stroke-width: 1; }
    .legend { font-size: 12px; fill: #0f172a; }
    .tick { font-size: 12px; fill: #475569; }
  </style>
<text class="title" x="16" y="24">Package manager popularity over time</text><text class="subtitle" x="16" y="42">10/22/2023 – 3/13/2026</text><g class="y-ticks"><line class="axis" x1="64" y1="324" x2="600" y2="324" /><text class="tick" x="52" y="324" dominant-baseline="middle" text-anchor="end">0%</text><line class="axis" x1="64" y1="261" x2="600" y2="261" /><text class="tick" x="52" y="261" dominant-baseline="middle" text-anchor="end">20%</text><line class="axis" x1="64" y1="198" x2="600" y2="198" /><text class="tick" x="52" y="198" dominant-baseline="middle" text-anchor="end">40%</text><line class="axis" x1="64" y1="135" x2="600" y2="135" /><text class="tick" x="52" y="135" dominant-baseline="middle" text-anchor="end">60%</text><line class="axis" x1="64" y1="72" x2="600" y2="72" /><text class="tick" x="52" y="72" dominant-baseline="middle" text-anchor="end">80%</text></g><g class="x-ticks"><text class="tick" x="68" y="344" text-anchor="end" transform="rotate(-35 68 344)">10/22/2023</text><text class="tick" x="122.64375715922108" y="344" text-anchor="end" transform="rotate(-35 122.64375715922108 344)">1/19/2024</text><text class="tick" x="151.50057273768613" y="344" text-anchor="end" transform="rotate(-35 151.50057273768613 344)">3/6/2024</text><text class="tick" x="223.94959908361972" y="344" text-anchor="end" transform="rotate(-35 223.94959908361972 344)">7/2/2024</text><text class="tick" x="293.32875143184424" y="344" text-anchor="end" transform="rotate(-35 293.32875143184424 344)">10/23/2024</text><text class="tick" x="390.33676975945014" y="344" text-anchor="end" transform="rotate(-35 390.33676975945014 344)">3/30/2025</text><text class="tick" x="483.6609392898053" y="344" text-anchor="end" transform="rotate(-35 483.6609392898053 344)">8/29/2025</text><text class="tick" x="569.6174112256587" y="344" text-anchor="end" transform="rotate(-35 569.6174112256587 344)">1/16/2026</text><text class="tick" x="604" y="344" text-anchor="end" transform="rotate(-35 604 344)">3/13/2026</text></g><g class="series-group"><g class="series" data-key="npm"><polyline fill="none" stroke="#ea2039" stroke-width="3" points="64,156.20588235294116 118.64375715922108,155.80608365019015 147.50057273768613,155.54716981132074 219.94959908361972,149.72282608695653 289.32875143184424,145.20229007633588 386.33676975945014,141.1859572133845 479.6609392898053,131.95217152281472 565.6174112256587,129.41073384446878 600,128.0076544559869" /><circle cx="64" cy="156.20588235294116" r="4" fill="#ea2039" /><circle cx="118.64375715922108" cy="155.80608365019015" r="4" fill="#ea2039" /><circle cx="147.50057273768613" cy="155.54716981132074" r="4" fill="#ea2039" /><circle cx="219.94959908361972" cy="149.72282608695653" r="4" fill="#ea2039" /><circle cx="289.32875143184424" cy="145.20229007633588" r="4" fill="#ea2039" /><circle cx="386.33676975945014" cy="141.1859572133845" r="4" fill="#ea2039" /><circle cx="479.6609392898053" cy="131.95217152281472" r="4" fill="#ea2039" /><circle cx="565.6174112256587" cy="129.41073384446878" r="4" fill="#ea2039" /><circle cx="600" cy="128.0076544559869" r="4" fill="#ea2039" /></g><g class="series" data-key="yarn_modern"><polyline fill="none" stroke="#2f2a68" stroke-width="3" points="64,311.13235294117646 118.64375715922108,310.4828897338403 147.50057273768613,308.20754716981133 219.94959908361972,308.25 289.32875143184424,307.1679389312977 386.33676975945014,306.029621503017 479.6609392898053,305.8169323804288 565.6174112256587,305.7141292442497 600,306.0885729907053" /><circle cx="64" cy="311.13235294117646" r="4" fill="#2f2a68" /><circle cx="118.64375715922108" cy="310.4828897338403" r="4" fill="#2f2a68" /><circle cx="147.50057273768613" cy="308.20754716981133" r="4" fill="#2f2a68" /><circle cx="219.94959908361972" cy="308.25" r="4" fill="#2f2a68" /><circle cx="289.32875143184424" cy="307.1679389312977" r="4" fill="#2f2a68" /><circle cx="386.33676975945014" cy="306.029621503017" r="4" fill="#2f2a68" /><circle cx="479.6609392898053" cy="305.8169323804288" r="4" fill="#2f2a68" /><circle cx="565.6174112256587" cy="305.7141292442497" r="4" fill="#2f2a68" /><circle cx="600" cy="306.0885729907053" r="4" fill="#2f2a68" /></g><g class="series" data-key="yarn_classic"><polyline fill="none" stroke="#2c8ebb" stroke-width="3" points="64,243.19117647058823 118.64375715922108,245.1216730038023 147.50057273768613,248.60377358490567 219.94959908361972,253.29619565217394 289.32875143184424,256.32824427480915 386.33676975945014,260.06692265496434 479.6609392898053,265.2946673996702 565.6174112256587,270.86746987951807 600,273.021323127392" /><circle cx="64" cy="243.19117647058823" r="4" fill="#2c8ebb" /><circle cx="118.64375715922108" cy="245.1216730038023" r="4" fill="#2c8ebb" /><circle cx="147.50057273768613" cy="248.60377358490567" r="4" fill="#2c8ebb" /><circle cx="219.94959908361972" cy="253.29619565217394" r="4" fill="#2c8ebb" /><circle cx="289.32875143184424" cy="256.32824427480915" r="4" fill="#2c8ebb" /><circle cx="386.33676975945014" cy="260.06692265496434" r="4" fill="#2c8ebb" /><circle cx="479.6609392898053" cy="265.2946673996702" r="4" fill="#2c8ebb" /><circle cx="565.6174112256587" cy="270.86746987951807" r="4" fill="#2c8ebb" /><circle cx="600" cy="273.021323127392" r="4" fill="#2c8ebb" /></g><g class="series" data-key="pnpm"><polyline fill="none" stroke="#f9ad00" stroke-width="3" points="64,305.9852941176471 118.64375715922108,303.80988593155894 147.50057273768613,304.3018867924528 219.94959908361972,304.14130434782606 289.32875143184424,306.82442748091603 386.33676975945014,308.10312671420735 479.6609392898053,307.7218251786696 565.6174112256587,307.09419496166487 600,307.6386003280481" /><circle cx="64" cy="305.9852941176471" r="4" fill="#f9ad00" /><circle cx="118.64375715922108" cy="303.80988593155894" r="4" fill="#f9ad00" /><circle cx="147.50057273768613" cy="304.3018867924528" r="4" fill="#f9ad00" /><circle cx="219.94959908361972" cy="304.14130434782606" r="4" fill="#f9ad00" /><circle cx="289.32875143184424" cy="306.82442748091603" r="4" fill="#f9ad00" /><circle cx="386.33676975945014" cy="308.10312671420735" r="4" fill="#f9ad00" /><circle cx="479.6609392898053" cy="307.7218251786696" r="4" fill="#f9ad00" /><circle cx="565.6174112256587" cy="307.09419496166487" r="4" fill="#f9ad00" /><circle cx="600" cy="307.6386003280481" r="4" fill="#f9ad00" /></g><g class="series" data-key="bun"><polyline fill="none" stroke="#f472b6" stroke-width="3" points="64,323.3137254901961 118.64375715922108,323.31558935361215 147.50057273768613,323.3207547169811 219.94959908361972,322.4592391304348 289.32875143184424,321.7671755725191 386.33676975945014,321.4081184860121 479.6609392898053,319.6706981858164 565.6174112256587,317.9622124863089 600,315.7331875341717" /><circle cx="64" cy="323.3137254901961" r="4" fill="#f472b6" /><circle cx="118.64375715922108" cy="323.31558935361215" r="4" fill="#f472b6" /><circle cx="147.50057273768613" cy="323.3207547169811" r="4" fill="#f472b6" /><circle cx="219.94959908361972" cy="322.4592391304348" r="4" fill="#f472b6" /><circle cx="289.32875143184424" cy="321.7671755725191" r="4" fill="#f472b6" /><circle cx="386.33676975945014" cy="321.4081184860121" r="4" fill="#f472b6" /><circle cx="479.6609392898053" cy="319.6706981858164" r="4" fill="#f472b6" /><circle cx="565.6174112256587" cy="317.9622124863089" r="4" fill="#f472b6" /><circle cx="600" cy="315.7331875341717" r="4" fill="#f472b6" /></g></g><g class="legend-group"><g class="legend-item" data-key="npm"><rect x="632" y="62" width="12" height="12" rx="2" fill="#ea2039" /><text class="legend" x="650" y="72" dominant-baseline="middle">npm</text></g><g class="legend-item" data-key="yarn_modern"><rect x="632" y="82" width="12" height="12" rx="2" fill="#2f2a68" /><text class="legend" x="650" y="92" dominant-baseline="middle">Yarn (Berry)</text></g><g class="legend-item" data-key="yarn_classic"><rect x="632" y="102" width="12" height="12" rx="2" fill="#2c8ebb" /><text class="legend" x="650" y="112" dominant-baseline="middle">Yarn Classic</text></g><g class="legend-item" data-key="pnpm"><rect x="632" y="122" width="12" height="12" rx="2" fill="#f9ad00" /><text class="legend" x="650" y="132" dominant-baseline="middle">pnpm</text></g><g class="legend-item" data-key="bun"><rect x="632" y="142" width="12" height="12" rx="2" fill="#f472b6" /><text class="legend" x="650" y="152" dominant-baseline="middle">Bun</text></g></g></svg>
