<svg xmlns="http://www.w3.org/2000/svg" width="720" height="270" viewBox="0 0 720 270" role="img" aria-label="npm versions">
  <style>
    text { font-family: "Helvetica Neue", Arial, sans-serif; }
    .title { font-size: 20px; font-weight: 700; fill: #e2e8f0; }
    .subtitle { font-size: 12px; fill: #cbd5e1; }
    .footer { font-size: 12px; fill: #cbd5e1; }
    .label { font-size: 12px; text-anchor: end; fill: #e2e8f0; }
    .value { font-size: 12px; fill: #e2e8f0; }
  </style>
<text class="title" x="16" y="24">npm versions</text><text class="subtitle" x="16" y="42">5/13/2026</text><g class="bars"><g class="bar" data-label="9 or 10 or 11"><text class="label" x="100" y="78" dominant-baseline="middle">9 or 10 or 11</text><rect x="110" y="64" width="470" height="28" rx="6" fill="#ea2039" /><text class="value" x="588" y="78" dominant-baseline="middle">419 (61.0%)</text><clipPath id="mini-bar-dark-0-9-or-10-or-11"><rect x="110" y="98" width="470" height="11" rx="4" /></clipPath><rect x="110" y="98" width="470" height="11" rx="4" fill="#475569" opacity="0.25" /><g clip-path="url(#mini-bar-dark-0-9-or-10-or-11)"><rect x="110" y="98" width="1.1217183770883055" height="11" fill="#ea2039" /><rect x="111.1217183770883" y="98" width="13.460620525059667" height="11" fill="#ea2039" /><line x1="111.1217183770883" y1="98" x2="111.1217183770883" y2="109" stroke="#0f172a" stroke-width="1" /><rect x="124.58233890214797" y="98" width="10.095465393794749" height="11" fill="#ea2039" /><line x1="124.58233890214797" y1="98" x2="124.58233890214797" y2="109" stroke="#0f172a" stroke-width="1" /></g></g><g class="bar" data-label="7 or 8"><text class="label" x="100" y="135" dominant-baseline="middle">7 or 8</text><rect x="110" y="121" width="181.7183770883055" height="28" rx="6" fill="#ea2039" /><text class="value" x="299.7183770883055" y="135" dominant-baseline="middle">162 (23.6%)</text><clipPath id="mini-bar-dark-1-7-or-8"><rect x="110" y="155" width="181.7183770883055" height="11" rx="4" /></clipPath><rect x="110" y="155" width="181.7183770883055" height="11" rx="4" fill="#475569" opacity="0.25" /><g clip-path="url(#mini-bar-dark-1-7-or-8)"><rect x="110" y="155" width="1.1217183770883055" height="11" fill="#ea2039" /></g></g><g class="bar" data-label="5 or 6"><text class="label" x="100" y="192" dominant-baseline="middle">5 or 6</text><rect x="110" y="178" width="118.90214797136038" height="28" rx="6" fill="#ea2039" /><text class="value" x="236.90214797136036" y="192" dominant-baseline="middle">106 (15.4%)</text></g></g><text class="footer" x="16" y="230">* npm version cannot always be accurately derived; may be guessed from lockfile</text></svg>
