<svg xmlns="http://www.w3.org/2000/svg" width="720" height="420" viewBox="0 0 720 420" role="img" aria-label="Package manager popularity over time">
  <style>
    text { font-family: "Helvetica Neue", Arial, sans-serif; }
    .title { font-size: 20px; font-weight: 700; fill: #0f172a; }
    .subtitle { font-size: 12px; fill: #475569; }
    .axis { stroke: #cbd5e1; stroke-width: 1; }
    .footer { font-size: 12px; fill: #94a3b8; }
    .legend { font-size: 12px; fill: #0f172a; }
    .tick { font-size: 12px; fill: #475569; }
  </style>
<text class="title" x="16" y="24">Package manager popularity over time</text><text class="subtitle" x="16" y="42">10/22/2023 – 3/13/2026</text><g class="y-ticks"><line class="axis" x1="64" y1="304" x2="600" y2="304" /><text class="tick" x="52" y="304" dominant-baseline="middle" text-anchor="end">0%</text><line class="axis" x1="64" y1="246" x2="600" y2="246" /><text class="tick" x="52" y="246" dominant-baseline="middle" text-anchor="end">20%</text><line class="axis" x1="64" y1="188" x2="600" y2="188" /><text class="tick" x="52" y="188" dominant-baseline="middle" text-anchor="end">40%</text><line class="axis" x1="64" y1="130" x2="600" y2="130" /><text class="tick" x="52" y="130" dominant-baseline="middle" text-anchor="end">60%</text><line class="axis" x1="64" y1="72" x2="600" y2="72" /><text class="tick" x="52" y="72" dominant-baseline="middle" text-anchor="end">80%</text></g><g class="x-ticks"><text class="tick" x="68" y="324" text-anchor="end" transform="rotate(-35 68 324)">10/22/2023</text><text class="tick" x="122.64375715922108" y="324" text-anchor="end" transform="rotate(-35 122.64375715922108 324)">1/19/2024</text><text class="tick" x="151.50057273768613" y="324" text-anchor="end" transform="rotate(-35 151.50057273768613 324)">3/6/2024</text><text class="tick" x="223.94959908361972" y="324" text-anchor="end" transform="rotate(-35 223.94959908361972 324)">7/2/2024</text><text class="tick" x="293.32875143184424" y="324" text-anchor="end" transform="rotate(-35 293.32875143184424 324)">10/23/2024</text><text class="tick" x="390.33676975945014" y="324" text-anchor="end" transform="rotate(-35 390.33676975945014 324)">3/30/2025</text><text class="tick" x="483.6609392898053" y="324" text-anchor="end" transform="rotate(-35 483.6609392898053 324)">8/29/2025</text><text class="tick" x="569.6174112256587" y="324" text-anchor="end" transform="rotate(-35 569.6174112256587 324)">1/16/2026</text><text class="tick" x="604" y="324" text-anchor="end" transform="rotate(-35 604 324)">3/13/2026</text></g><g class="series-group"><g class="series" data-key="npm"><polyline fill="none" stroke="#ea2039" stroke-width="3" points="64,149.52287581699343 118.64375715922108,149.1548071700163 147.50057273768613,148.91644204851752 219.94959908361972,143.55434782608697 289.32875143184424,139.3925845147219 386.33676975945014,135.69500822819526 479.6609392898053,127.1940626717977 565.6174112256587,124.85432639649508 600,169.54401312192454" /><circle cx="64" cy="149.52287581699343" r="4" fill="#ea2039" /><circle cx="118.64375715922108" cy="149.1548071700163" r="4" fill="#ea2039" /><circle cx="147.50057273768613" cy="148.91644204851752" r="4" fill="#ea2039" /><circle cx="219.94959908361972" cy="143.55434782608697" r="4" fill="#ea2039" /><circle cx="289.32875143184424" cy="139.3925845147219" r="4" fill="#ea2039" /><circle cx="386.33676975945014" cy="135.69500822819526" r="4" fill="#ea2039" /><circle cx="479.6609392898053" cy="127.1940626717977" r="4" fill="#ea2039" /><circle cx="565.6174112256587" cy="124.85432639649508" r="4" fill="#ea2039" /><circle cx="600" cy="169.54401312192454" r="4" fill="#ea2039" /></g><g class="series" data-key="yarn_modern"><polyline fill="none" stroke="#2f2a68" stroke-width="3" points="64,292.15359477124184 118.64375715922108,291.5556762629006 147.50057273768613,289.46091644204853 219.94959908361972,289.5 289.32875143184424,288.5038167938931 386.33676975945014,287.45584201865057 479.6609392898053,287.26003298515667 565.6174112256587,287.16538882803945 600,287.5101148168398" /><circle cx="64" cy="292.15359477124184" r="4" fill="#2f2a68" /><circle cx="118.64375715922108" cy="291.5556762629006" r="4" fill="#2f2a68" /><circle cx="147.50057273768613" cy="289.46091644204853" r="4" fill="#2f2a68" /><circle cx="219.94959908361972" cy="289.5" r="4" fill="#2f2a68" /><circle cx="289.32875143184424" cy="288.5038167938931" r="4" fill="#2f2a68" /><circle cx="386.33676975945014" cy="287.45584201865057" r="4" fill="#2f2a68" /><circle cx="479.6609392898053" cy="287.26003298515667" r="4" fill="#2f2a68" /><circle cx="565.6174112256587" cy="287.16538882803945" r="4" fill="#2f2a68" /><circle cx="600" cy="287.5101148168398" r="4" fill="#2f2a68" /></g><g class="series" data-key="yarn_classic"><polyline fill="none" stroke="#2c8ebb" stroke-width="3" points="64,229.6045751633987 118.64375715922108,231.3818576860402 147.50057273768613,234.5876010781671 219.94959908361972,238.9076086956522 289.32875143184424,241.69901853871318 386.33676975945014,245.14097641250686 479.6609392898053,249.9538207806487 565.6174112256587,255.08433734939757 600,257.0672498633133" /><circle cx="64" cy="229.6045751633987" r="4" fill="#2c8ebb" /><circle cx="118.64375715922108" cy="231.3818576860402" r="4" fill="#2c8ebb" /><circle cx="147.50057273768613" cy="234.5876010781671" r="4" fill="#2c8ebb" /><circle cx="219.94959908361972" cy="238.9076086956522" r="4" fill="#2c8ebb" /><circle cx="289.32875143184424" cy="241.69901853871318" r="4" fill="#2c8ebb" /><circle cx="386.33676975945014" cy="245.14097641250686" r="4" fill="#2c8ebb" /><circle cx="479.6609392898053" cy="249.9538207806487" r="4" fill="#2c8ebb" /><circle cx="565.6174112256587" cy="255.08433734939757" r="4" fill="#2c8ebb" /><circle cx="600" cy="257.0672498633133" r="4" fill="#2c8ebb" /></g><g class="series" data-key="pnpm"><polyline fill="none" stroke="#f9ad00" stroke-width="3" points="64,287.41503267973854 118.64375715922108,285.4122759369908 147.50057273768613,285.86522911051213 219.94959908361972,285.7173913043478 289.32875143184424,288.1875681570338 386.33676975945014,289.3647833241909 479.6609392898053,289.01374381528314 565.6174112256587,288.43592552026286 600,242.95571350464735" /><circle cx="64" cy="287.41503267973854" r="4" fill="#f9ad00" /><circle cx="118.64375715922108" cy="285.4122759369908" r="4" fill="#f9ad00" /><circle cx="147.50057273768613" cy="285.86522911051213" r="4" fill="#f9ad00" /><circle cx="219.94959908361972" cy="285.7173913043478" r="4" fill="#f9ad00" /><circle cx="289.32875143184424" cy="288.1875681570338" r="4" fill="#f9ad00" /><circle cx="386.33676975945014" cy="289.3647833241909" r="4" fill="#f9ad00" /><circle cx="479.6609392898053" cy="289.01374381528314" r="4" fill="#f9ad00" /><circle cx="565.6174112256587" cy="288.43592552026286" r="4" fill="#f9ad00" /><circle cx="600" cy="242.95571350464735" r="4" fill="#f9ad00" /></g><g class="series" data-key="bun"><polyline fill="none" stroke="#f472b6" stroke-width="3" points="64,303.3681917211329 118.64375715922108,303.36990765888106 147.50057273768613,303.3746630727763 219.94959908361972,302.58152173913044 289.32875143184424,301.9443838604144 386.33676975945014,301.6138233680746 479.6609392898053,300.01429356789447 565.6174112256587,298.44140197152245 600,296.38928376161834" /><circle cx="64" cy="303.3681917211329" r="4" fill="#f472b6" /><circle cx="118.64375715922108" cy="303.36990765888106" r="4" fill="#f472b6" /><circle cx="147.50057273768613" cy="303.3746630727763" r="4" fill="#f472b6" /><circle cx="219.94959908361972" cy="302.58152173913044" r="4" fill="#f472b6" /><circle cx="289.32875143184424" cy="301.9443838604144" r="4" fill="#f472b6" /><circle cx="386.33676975945014" cy="301.6138233680746" r="4" fill="#f472b6" /><circle cx="479.6609392898053" cy="300.01429356789447" r="4" fill="#f472b6" /><circle cx="565.6174112256587" cy="298.44140197152245" r="4" fill="#f472b6" /><circle cx="600" cy="296.38928376161834" r="4" fill="#f472b6" /></g></g><g class="legend-group"><g class="legend-item" data-key="npm"><rect x="632" y="62" width="12" height="12" rx="2" fill="#ea2039" /><text class="legend" x="650" y="72" dominant-baseline="middle">npm</text></g><g class="legend-item" data-key="yarn_modern"><rect x="632" y="82" width="12" height="12" rx="2" fill="#2f2a68" /><text class="legend" x="650" y="92" dominant-baseline="middle">Yarn (Berry)</text></g><g class="legend-item" data-key="yarn_classic"><rect x="632" y="102" width="12" height="12" rx="2" fill="#2c8ebb" /><text class="legend" x="650" y="112" dominant-baseline="middle">Yarn Classic</text></g><g class="legend-item" data-key="pnpm"><rect x="632" y="122" width="12" height="12" rx="2" fill="#f9ad00" /><text class="legend" x="650" y="132" dominant-baseline="middle">pnpm</text></g><g class="legend-item" data-key="bun"><rect x="632" y="142" width="12" height="12" rx="2" fill="#f472b6" /><text class="legend" x="650" y="152" dominant-baseline="middle">Bun</text></g></g><text class="footer" x="16" y="404">* A significant npm/pnpm counting bug was fixed on 3/13/2026</text></svg>
