<svg xmlns="http://www.w3.org/2000/svg" width="838" height="333" viewBox="0 0 838 333" role="img" aria-label="pnpm versions">
  <style>
    text { font-family: "Helvetica Neue", Arial, sans-serif; }
    .title { font-size: 20px; font-weight: 700; fill: #e2e8f0; }
    .subtitle { font-size: 12px; fill: #cbd5e1; }
    .footer { font-size: 12px; fill: #cbd5e1; }
    .label { font-size: 12px; text-anchor: end; fill: #e2e8f0; }
    .value { font-size: 12px; fill: #e2e8f0; }
  </style>
<text class="title" x="16" y="24">pnpm versions</text><text class="subtitle" x="16" y="42">5/13/2026</text><g class="bars"><g class="bar" data-label="9 or 10 or 11"><text class="label" x="100" y="86" dominant-baseline="middle">9 or 10 or 11</text><rect x="110" y="72" width="568" height="28" rx="6" fill="#f9ad00" /><text class="value" x="686" y="86" dominant-baseline="middle">355 (91.0%)</text><clipPath id="mini-bar-dark-0-9-or-10-or-11"><rect x="110" y="106" width="568" height="11" rx="4" /></clipPath><rect x="110" y="106" width="568" height="11" rx="4" fill="#475569" opacity="0.25" /><g clip-path="url(#mini-bar-dark-0-9-or-10-or-11)"><rect x="110" y="106" width="92.8" height="11" fill="#f9ad00" /><text x="156.4" y="112.5" text-anchor="middle" dominant-baseline="middle" font-size="9" fill="#111827">9</text><rect x="202.8" y="106" width="305.59999999999997" height="11" fill="#f9ad00" /><line x1="202.8" y1="106" x2="202.8" y2="117" stroke="#0f172a" stroke-width="1" /><text x="355.6" y="112.5" text-anchor="middle" dominant-baseline="middle" font-size="9" fill="#111827">10</text><rect x="508.4" y="106" width="51.2" height="11" fill="#f9ad00" /><line x1="508.4" y1="106" x2="508.4" y2="117" stroke="#0f172a" stroke-width="1" /><text x="534" y="112.5" text-anchor="middle" dominant-baseline="middle" font-size="9" fill="#111827">11</text></g></g><g class="bar" data-label="8"><text class="label" x="100" y="151" dominant-baseline="middle">8</text><rect x="110" y="137" width="44.800000000000004" height="28" rx="6" fill="#f9ad00" /><text class="value" x="162.8" y="151" dominant-baseline="middle">28 (7.2%)</text></g><g class="bar" data-label="7"><text class="label" x="100" y="199" dominant-baseline="middle">7</text><rect x="110" y="185" width="6.4" height="28" rx="6" fill="#f9ad00" /><text class="value" x="124.4" y="199" dominant-baseline="middle">4 (1.0%)</text></g><g class="bar" data-label="6"><text class="label" x="100" y="247" dominant-baseline="middle">6</text><rect x="110" y="233" width="4.8" height="28" rx="6" fill="#f9ad00" /><text class="value" x="122.8" y="247" dominant-baseline="middle">3 (0.8%)</text></g></g><text class="footer" x="16" y="285">* pnpm version cannot always be accurately derived; may be guessed from lockfile</text></svg>
