<svg xmlns="http://www.w3.org/2000/svg" width="720" height="420" viewBox="0 0 720 420" role="img" aria-label="Package manager popularity over time">
  <style>
    text { font-family: "Helvetica Neue", Arial, sans-serif; fill: #0f172a; }
    .title { font-size: 20px; font-weight: 700; }
    .subtitle { font-size: 12px; fill: #475569; }
    .axis { stroke: #cbd5e1; stroke-width: 1; }
    .legend { font-size: 12px; fill: #0f172a; }
    .tick { font-size: 12px; fill: #475569; }
  </style>
<text class="title" x="16" y="24">Package manager popularity over time</text><text class="subtitle" x="16" y="42">10/22/2023 – 1/16/2026</text><g class="y-ticks"><line class="axis" x1="64" y1="356" x2="600" y2="356" /><text class="tick" x="52" y="356" dominant-baseline="middle" text-anchor="end">0%</text><line class="axis" x1="64" y1="285" x2="600" y2="285" /><text class="tick" x="52" y="285" dominant-baseline="middle" text-anchor="end">20%</text><line class="axis" x1="64" y1="214" x2="600" y2="214" /><text class="tick" x="52" y="214" dominant-baseline="middle" text-anchor="end">40%</text><line class="axis" x1="64" y1="143" x2="600" y2="143" /><text class="tick" x="52" y="143" dominant-baseline="middle" text-anchor="end">60%</text><line class="axis" x1="64" y1="72" x2="600" y2="72" /><text class="tick" x="52" y="72" dominant-baseline="middle" text-anchor="end">80%</text></g><g class="x-ticks"><text class="tick" x="64" y="374" text-anchor="middle">2023-10-22</text><text class="tick" x="140.57142857142856" y="374" text-anchor="middle">2024-01-19</text><text class="tick" x="217.14285714285714" y="374" text-anchor="middle">2024-03-06</text><text class="tick" x="293.7142857142857" y="374" text-anchor="middle">2024-07-02</text><text class="tick" x="370.2857142857143" y="374" text-anchor="middle">2024-10-23</text><text class="tick" x="446.85714285714283" y="374" text-anchor="middle">2025-03-30</text><text class="tick" x="523.4285714285714" y="374" text-anchor="middle">2025-08-29</text><text class="tick" x="600" y="374" text-anchor="middle">2026-01-16</text></g><g class="series-group"><g class="series" data-key="npm"><polyline fill="none" stroke="#ea2039" stroke-width="3" points="64,166.8986928104575 140.57142857142856,166.44812601846826 217.14285714285714,166.15633423180594 293.7142857142857,159.59239130434784 370.2857142857143,154.4978189749182 446.85714285714283,149.97147558968732 523.4285714285714,139.565145684442 600,136.70098576122675" /><circle cx="64" cy="166.8986928104575" r="4" fill="#ea2039" /><circle cx="140.57142857142856" cy="166.44812601846826" r="4" fill="#ea2039" /><circle cx="217.14285714285714" cy="166.15633423180594" r="4" fill="#ea2039" /><circle cx="293.7142857142857" cy="159.59239130434784" r="4" fill="#ea2039" /><circle cx="370.2857142857143" cy="154.4978189749182" r="4" fill="#ea2039" /><circle cx="446.85714285714283" cy="149.97147558968732" r="4" fill="#ea2039" /><circle cx="523.4285714285714" cy="139.565145684442" r="4" fill="#ea2039" /><circle cx="600" cy="136.70098576122675" r="4" fill="#ea2039" /></g><g class="series" data-key="yarn_modern"><polyline fill="none" stroke="#2f2a68" stroke-width="3" points="64,341.4983660130719 140.57142857142856,340.76643128734383 217.14285714285714,338.2021563342318 293.7142857142857,338.25 370.2857142857143,337.03053435114504 446.85714285714283,335.74766867800327 523.4285714285714,335.5079714128642 600,335.3921139101862" /><circle cx="64" cy="341.4983660130719" r="4" fill="#2f2a68" /><circle cx="140.57142857142856" cy="340.76643128734383" r="4" fill="#2f2a68" /><circle cx="217.14285714285714" cy="338.2021563342318" r="4" fill="#2f2a68" /><circle cx="293.7142857142857" cy="338.25" r="4" fill="#2f2a68" /><circle cx="370.2857142857143" cy="337.03053435114504" r="4" fill="#2f2a68" /><circle cx="446.85714285714283" cy="335.74766867800327" r="4" fill="#2f2a68" /><circle cx="523.4285714285714" cy="335.5079714128642" r="4" fill="#2f2a68" /><circle cx="600" cy="335.3921139101862" r="4" fill="#2f2a68" /></g><g class="series" data-key="yarn_classic"><polyline fill="none" stroke="#2c8ebb" stroke-width="3" points="64,264.92973856209153 140.57142857142856,267.1053775122216 217.14285714285714,271.0296495956873 293.7142857142857,276.3179347826087 370.2857142857143,279.7350054525627 446.85714285714283,283.94843664289635 523.4285714285714,289.84002199010445 600,296.12048192771084" /><circle cx="64" cy="264.92973856209153" r="4" fill="#2c8ebb" /><circle cx="140.57142857142856" cy="267.1053775122216" r="4" fill="#2c8ebb" /><circle cx="217.14285714285714" cy="271.0296495956873" r="4" fill="#2c8ebb" /><circle cx="293.7142857142857" cy="276.3179347826087" r="4" fill="#2c8ebb" /><circle cx="370.2857142857143" cy="279.7350054525627" r="4" fill="#2c8ebb" /><circle cx="446.85714285714283" cy="283.94843664289635" r="4" fill="#2c8ebb" /><circle cx="523.4285714285714" cy="289.84002199010445" r="4" fill="#2c8ebb" /><circle cx="600" cy="296.12048192771084" r="4" fill="#2c8ebb" /></g><g class="series" data-key="pnpm"><polyline fill="none" stroke="#f9ad00" stroke-width="3" points="64,335.6977124183006 140.57142857142856,333.246061922868 217.14285714285714,333.80053908355796 293.7142857142857,333.6195652173913 370.2857142857143,336.6434023991276 446.85714285714283,338.0844761382337 523.4285714285714,337.65475536008796 600,336.947426067908" /><circle cx="64" cy="335.6977124183006" r="4" fill="#f9ad00" /><circle cx="140.57142857142856" cy="333.246061922868" r="4" fill="#f9ad00" /><circle cx="217.14285714285714" cy="333.80053908355796" r="4" fill="#f9ad00" /><circle cx="293.7142857142857" cy="333.6195652173913" r="4" fill="#f9ad00" /><circle cx="370.2857142857143" cy="336.6434023991276" r="4" fill="#f9ad00" /><circle cx="446.85714285714283" cy="338.0844761382337" r="4" fill="#f9ad00" /><circle cx="523.4285714285714" cy="337.65475536008796" r="4" fill="#f9ad00" /><circle cx="600" cy="336.947426067908" r="4" fill="#f9ad00" /></g><g class="series" data-key="bun"><polyline fill="none" stroke="#f472b6" stroke-width="3" points="64,355.22657952069716 140.57142857142856,355.22868006518195 217.14285714285714,355.2345013477089 293.7142857142857,354.26358695652175 370.2857142857143,353.48364231188657 446.85714285714283,353.07899067471203 523.4285714285714,351.1209455744915 600,349.1955093099671" /><circle cx="64" cy="355.22657952069716" r="4" fill="#f472b6" /><circle cx="140.57142857142856" cy="355.22868006518195" r="4" fill="#f472b6" /><circle cx="217.14285714285714" cy="355.2345013477089" r="4" fill="#f472b6" /><circle cx="293.7142857142857" cy="354.26358695652175" r="4" fill="#f472b6" /><circle cx="370.2857142857143" cy="353.48364231188657" r="4" fill="#f472b6" /><circle cx="446.85714285714283" cy="353.07899067471203" r="4" fill="#f472b6" /><circle cx="523.4285714285714" cy="351.1209455744915" r="4" fill="#f472b6" /><circle cx="600" cy="349.1955093099671" r="4" fill="#f472b6" /></g></g><g class="legend-group"><g class="legend-item" data-key="npm"><rect x="632" y="62" width="12" height="12" rx="2" fill="#ea2039" /><text class="legend" x="650" y="72" dominant-baseline="middle">npm</text></g><g class="legend-item" data-key="yarn_modern"><rect x="632" y="82" width="12" height="12" rx="2" fill="#2f2a68" /><text class="legend" x="650" y="92" dominant-baseline="middle">Yarn (Berry)</text></g><g class="legend-item" data-key="yarn_classic"><rect x="632" y="102" width="12" height="12" rx="2" fill="#2c8ebb" /><text class="legend" x="650" y="112" dominant-baseline="middle">Yarn Classic</text></g><g class="legend-item" data-key="pnpm"><rect x="632" y="122" width="12" height="12" rx="2" fill="#f9ad00" /><text class="legend" x="650" y="132" dominant-baseline="middle">pnpm</text></g><g class="legend-item" data-key="bun"><rect x="632" y="142" width="12" height="12" rx="2" fill="#f472b6" /><text class="legend" x="650" y="152" dominant-baseline="middle">Bun</text></g></g></svg>
