<svg xmlns="http://www.w3.org/2000/svg" width="720" height="270" viewBox="0 0 720 270" role="img" aria-label="npm versions">
  <style>
    text { font-family: "Helvetica Neue", Arial, sans-serif; }
    .title { font-size: 20px; font-weight: 700; fill: #e2e8f0; }
    .subtitle { font-size: 12px; fill: #cbd5e1; }
    .footer { font-size: 12px; fill: #cbd5e1; }
    .label { font-size: 12px; text-anchor: end; fill: #e2e8f0; }
    .value { font-size: 12px; fill: #e2e8f0; }
  </style>
<text class="title" x="16" y="24">npm versions</text><text class="subtitle" x="16" y="42">3/13/2026</text><g class="bars"><g class="bar" data-label="9 or 10 or 11"><text class="label" x="100" y="78" dominant-baseline="middle">9 or 10 or 11</text><rect x="110" y="64" width="470" height="28" rx="6" fill="#ea2039" /><text class="value" x="588" y="78" dominant-baseline="middle">652 (68.0%)</text><clipPath id="mini-bar-dark-0-9-or-10-or-11"><rect x="110" y="98" width="470" height="11" rx="4" /></clipPath><rect x="110" y="98" width="470" height="11" rx="4" fill="#475569" opacity="0.25" /><g clip-path="url(#mini-bar-dark-0-9-or-10-or-11)"><rect x="110" y="98" width="47.576687116564415" height="11" fill="#ea2039" /><text x="133.7883435582822" y="104.5" text-anchor="middle" dominant-baseline="middle" font-size="9" fill="#ffffff">9</text><rect x="157.57668711656441" y="98" width="152.82208588957056" height="11" fill="#ea2039" /><line x1="157.57668711656441" y1="98" x2="157.57668711656441" y2="109" stroke="#0f172a" stroke-width="1" /><text x="233.98773006134968" y="104.5" text-anchor="middle" dominant-baseline="middle" font-size="9" fill="#ffffff">10</text><rect x="310.398773006135" y="98" width="5.04601226993865" height="11" fill="#ea2039" /><line x1="310.398773006135" y1="98" x2="310.398773006135" y2="109" stroke="#0f172a" stroke-width="1" /></g></g><g class="bar" data-label="7 or 8"><text class="label" x="100" y="135" dominant-baseline="middle">7 or 8</text><rect x="110" y="121" width="140.56748466257667" height="28" rx="6" fill="#ea2039" /><text class="value" x="258.5674846625767" y="135" dominant-baseline="middle">195 (20.3%)</text><clipPath id="mini-bar-dark-1-7-or-8"><rect x="110" y="155" width="140.56748466257667" height="11" rx="4" /></clipPath><rect x="110" y="155" width="140.56748466257667" height="11" rx="4" fill="#475569" opacity="0.25" /><g clip-path="url(#mini-bar-dark-1-7-or-8)"><rect x="110" y="155" width="0.7208588957055214" height="11" fill="#ea2039" /><rect x="110.72085889570552" y="155" width="15.858895705521471" height="11" fill="#ea2039" /><line x1="110.72085889570552" y1="155" x2="110.72085889570552" y2="166" stroke="#0f172a" stroke-width="1" /></g></g><g class="bar" data-label="5 or 6"><text class="label" x="100" y="192" dominant-baseline="middle">5 or 6</text><rect x="110" y="178" width="80.7361963190184" height="28" rx="6" fill="#ea2039" /><text class="value" x="198.7361963190184" y="192" dominant-baseline="middle">112 (11.7%)</text></g></g><text class="footer" x="16" y="230">* npm version cannot always be accurately derived; may be guessed from lockfile</text></svg>
