<svg xmlns="http://www.w3.org/2000/svg" width="720" height="270" viewBox="0 0 720 270" role="img" aria-label="npm versions">
  <style>
    text { font-family: "Helvetica Neue", Arial, sans-serif; }
    .title { font-size: 20px; font-weight: 700; fill: #e2e8f0; }
    .subtitle { font-size: 12px; fill: #cbd5e1; }
    .footer { font-size: 12px; fill: #cbd5e1; }
    .label { font-size: 12px; text-anchor: end; fill: #e2e8f0; }
    .value { font-size: 12px; fill: #e2e8f0; }
  </style>
<text class="title" x="16" y="24">npm versions</text><text class="subtitle" x="16" y="42">1/16/2026</text><g class="bars"><g class="bar" data-label="9 or 10 or 11"><text class="label" x="100" y="78" dominant-baseline="middle">9 or 10 or 11</text><rect x="110" y="64" width="470" height="28" rx="6" fill="#ea2039" /><text class="value" x="588" y="78" dominant-baseline="middle">628 (66.0%)</text><clipPath id="mini-bar-dark-0-9-or-10-or-11"><rect x="110" y="98" width="470" height="11" rx="4" /></clipPath><rect x="110" y="98" width="470" height="11" rx="4" fill="#475569" opacity="0.25" /><g clip-path="url(#mini-bar-dark-0-9-or-10-or-11)"><rect x="110" y="98" width="53.88535031847134" height="11" fill="#ea2039" /><text x="136.94267515923568" y="104.5" text-anchor="middle" dominant-baseline="middle" font-size="9" fill="#ffffff">9</text><rect x="163.88535031847135" y="98" width="143.69426751592357" height="11" fill="#ea2039" /><line x1="163.88535031847135" y1="98" x2="163.88535031847135" y2="109" stroke="#0f172a" stroke-width="1" /><text x="235.73248407643314" y="104.5" text-anchor="middle" dominant-baseline="middle" font-size="9" fill="#ffffff">10</text><rect x="307.5796178343949" y="98" width="2.993630573248408" height="11" fill="#ea2039" /><line x1="307.5796178343949" y1="98" x2="307.5796178343949" y2="109" stroke="#0f172a" stroke-width="1" /></g></g><g class="bar" data-label="7 or 8"><text class="label" x="100" y="135" dominant-baseline="middle">7 or 8</text><rect x="110" y="121" width="152.6751592356688" height="28" rx="6" fill="#ea2039" /><text class="value" x="270.6751592356688" y="135" dominant-baseline="middle">204 (21.5%)</text><clipPath id="mini-bar-dark-1-7-or-8"><rect x="110" y="155" width="152.6751592356688" height="11" rx="4" /></clipPath><rect x="110" y="155" width="152.6751592356688" height="11" rx="4" fill="#475569" opacity="0.25" /><g clip-path="url(#mini-bar-dark-1-7-or-8)"><rect x="110" y="155" width="1.4968152866242037" height="11" fill="#ea2039" /><rect x="111.4968152866242" y="155" width="15.716560509554139" height="11" fill="#ea2039" /><line x1="111.4968152866242" y1="155" x2="111.4968152866242" y2="166" stroke="#0f172a" stroke-width="1" /></g></g><g class="bar" data-label="5 or 6"><text class="label" x="100" y="192" dominant-baseline="middle">5 or 6</text><rect x="110" y="178" width="89.06050955414014" height="28" rx="6" fill="#ea2039" /><text class="value" x="207.06050955414014" y="192" dominant-baseline="middle">119 (12.5%)</text></g></g><text class="footer" x="16" y="230">* npm version cannot always be accurately derived; may be guessed from lockfile</text></svg>
