<svg xmlns="http://www.w3.org/2000/svg" width="838" height="489" viewBox="0 0 838 489" role="img" aria-label="Package manager popularity over time">
  <style>
    text { font-family: "Helvetica Neue", Arial, sans-serif; }
    .title { font-size: 20px; font-weight: 700; fill: #0f172a; }
    .subtitle { font-size: 12px; fill: #475569; }
    .axis { stroke: #cbd5e1; stroke-width: 1; }
    .footer { font-size: 12px; fill: #94a3b8; }
    .legend { font-size: 12px; fill: #0f172a; }
    .tick { font-size: 12px; fill: #475569; }
  </style>
<text class="title" x="16" y="24">Package manager popularity over time</text><text class="subtitle" x="16" y="42">10/22/2023 – 5/13/2026</text><g class="y-ticks"><line class="axis" x1="64" y1="373" x2="718" y2="373" /><text class="tick" x="52" y="373" dominant-baseline="middle" text-anchor="end">0%</text><line class="axis" x1="64" y1="272.6666666666667" x2="718" y2="272.6666666666667" /><text class="tick" x="52" y="272.6666666666667" dominant-baseline="middle" text-anchor="end">20%</text><line class="axis" x1="64" y1="172.33333333333334" x2="718" y2="172.33333333333334" /><text class="tick" x="52" y="172.33333333333334" dominant-baseline="middle" text-anchor="end">40%</text><line class="axis" x1="64" y1="72" x2="718" y2="72" /><text class="tick" x="52" y="72" dominant-baseline="middle" text-anchor="end">60%</text></g><g class="x-ticks"><text class="tick" x="68" y="393" text-anchor="end" transform="rotate(-35 68 393)">10/22/2023</text><text class="tick" x="130.31905781584584" y="393" text-anchor="end" transform="rotate(-35 130.31905781584584 393)">1/19/2024</text><text class="tick" x="163.2291220556745" y="393" text-anchor="end" transform="rotate(-35 163.2291220556745 393)">3/6/2024</text><text class="tick" x="245.8543897216274" y="393" text-anchor="end" transform="rotate(-35 245.8543897216274 393)">7/2/2024</text><text class="tick" x="324.97858672376873" y="393" text-anchor="end" transform="rotate(-35 324.97858672376873 393)">10/23/2024</text><text class="tick" x="435.61241970021416" y="393" text-anchor="end" transform="rotate(-35 435.61241970021416 393)">3/30/2025</text><text class="tick" x="542.0449678800857" y="393" text-anchor="end" transform="rotate(-35 542.0449678800857 393)">8/29/2025</text><text class="tick" x="640.0749464668095" y="393" text-anchor="end" transform="rotate(-35 640.0749464668095 393)">1/16/2026</text><text class="tick" x="679.2869379014988" y="393" text-anchor="end" transform="rotate(-35 679.2869379014988 393)">3/13/2026</text><text class="tick" x="722" y="393" text-anchor="end" transform="rotate(-35 722 393)">5/13/2026</text></g><g class="series-group"><g class="series" data-key="npm"><polyline fill="none" stroke="#ea2039" stroke-width="3" points="64,134.4624183006536 126.31905781584582,138.38022813688212 159.2291220556745,140.96226415094335 241.8543897216274,141.25181159420288 320.97858672376873,144.5966921119593 431.61241970021416,146.5207533369903 538.0449678800857,139.4037016675829 636.0749464668095,139.74972617743703 675.2869379014988,140.40659741206485 718,139.03517404774925" /><circle cx="64" cy="134.4624183006536" r="4" fill="#ea2039" /><circle cx="126.31905781584582" cy="138.38022813688212" r="4" fill="#ea2039" /><circle cx="159.2291220556745" cy="140.96226415094335" r="4" fill="#ea2039" /><circle cx="241.8543897216274" cy="141.25181159420288" r="4" fill="#ea2039" /><circle cx="320.97858672376873" cy="144.5966921119593" r="4" fill="#ea2039" /><circle cx="431.61241970021416" cy="146.5207533369903" r="4" fill="#ea2039" /><circle cx="538.0449678800857" cy="139.4037016675829" r="4" fill="#ea2039" /><circle cx="636.0749464668095" cy="139.74972617743703" r="4" fill="#ea2039" /><circle cx="675.2869379014988" cy="140.40659741206485" r="4" fill="#ea2039" /><circle cx="718" cy="139.03517404774925" r="4" fill="#ea2039" /></g><g class="series" data-key="pnpm"><polyline fill="none" stroke="#f9ad00" stroke-width="3" points="64,315.619825708061 126.31905781584582,307.60076045627375 159.2291220556745,305.38993710691824 241.8543897216274,295.5688405797101 320.97858672376873,289.2977099236641 431.61241970021416,283.01371365880414 538.0449678800857,274.817848634781 636.0749464668095,269.4247900693684 675.2869379014988,267.40040094769455 718,266.0289775833789" /><circle cx="64" cy="315.619825708061" r="4" fill="#f9ad00" /><circle cx="126.31905781584582" cy="307.60076045627375" r="4" fill="#f9ad00" /><circle cx="159.2291220556745" cy="305.38993710691824" r="4" fill="#f9ad00" /><circle cx="241.8543897216274" cy="295.5688405797101" r="4" fill="#f9ad00" /><circle cx="320.97858672376873" cy="289.2977099236641" r="4" fill="#f9ad00" /><circle cx="431.61241970021416" cy="283.01371365880414" r="4" fill="#f9ad00" /><circle cx="538.0449678800857" cy="274.817848634781" r="4" fill="#f9ad00" /><circle cx="636.0749464668095" cy="269.4247900693684" r="4" fill="#f9ad00" /><circle cx="675.2869379014988" cy="267.40040094769455" r="4" fill="#f9ad00" /><circle cx="718" cy="266.0289775833789" r="4" fill="#f9ad00" /></g><g class="series" data-key="yarn_classic"><polyline fill="none" stroke="#2c8ebb" stroke-width="3" points="64,244.30446623093684 126.31905781584582,247.37896070975918 159.2291220556745,252.9245283018868 241.8543897216274,260.39764492753625 320.97858672376873,265.2264631043257 431.61241970021416,271.1806545986469 538.0449678800857,279.50632215503026 636.0749464668095,288.3815261044177 675.2869379014988,291.8117368325132 718,297.0231456169127" /><circle cx="64" cy="244.30446623093684" r="4" fill="#2c8ebb" /><circle cx="126.31905781584582" cy="247.37896070975918" r="4" fill="#2c8ebb" /><circle cx="159.2291220556745" cy="252.9245283018868" r="4" fill="#2c8ebb" /><circle cx="241.8543897216274" cy="260.39764492753625" r="4" fill="#2c8ebb" /><circle cx="320.97858672376873" cy="265.2264631043257" r="4" fill="#2c8ebb" /><circle cx="431.61241970021416" cy="271.1806545986469" r="4" fill="#2c8ebb" /><circle cx="538.0449678800857" cy="279.50632215503026" r="4" fill="#2c8ebb" /><circle cx="636.0749464668095" cy="288.3815261044177" r="4" fill="#2c8ebb" /><circle cx="675.2869379014988" cy="291.8117368325132" r="4" fill="#2c8ebb" /><circle cx="718" cy="297.0231456169127" r="4" fill="#2c8ebb" /></g><g class="series" data-key="yarn_modern"><polyline fill="none" stroke="#2f2a68" stroke-width="3" points="64,352.5070806100218 126.31905781584582,351.4727503168568 159.2291220556745,347.8490566037736 241.8543897216274,347.9166666666667 320.97858672376873,346.1933842239186 431.61241970021416,344.3805083196197 538.0449678800857,344.0417811984607 636.0749464668095,343.8780576852866 675.2869379014988,344.4743940222344 718,345.5715327136869" /><circle cx="64" cy="352.5070806100218" r="4" fill="#2f2a68" /><circle cx="126.31905781584582" cy="351.4727503168568" r="4" fill="#2f2a68" /><circle cx="159.2291220556745" cy="347.8490566037736" r="4" fill="#2f2a68" /><circle cx="241.8543897216274" cy="347.9166666666667" r="4" fill="#2f2a68" /><circle cx="320.97858672376873" cy="346.1933842239186" r="4" fill="#2f2a68" /><circle cx="431.61241970021416" cy="344.3805083196197" r="4" fill="#2f2a68" /><circle cx="538.0449678800857" cy="344.0417811984607" r="4" fill="#2f2a68" /><circle cx="636.0749464668095" cy="343.8780576852866" r="4" fill="#2f2a68" /><circle cx="675.2869379014988" cy="344.4743940222344" r="4" fill="#2f2a68" /><circle cx="718" cy="345.5715327136869" r="4" fill="#2f2a68" /></g><g class="series" data-key="bun"><polyline fill="none" stroke="#f472b6" stroke-width="3" points="64,371.9070442992012 126.31905781584582,371.91001267427123 159.2291220556745,371.9182389937107 241.8543897216274,370.54619565217394 320.97858672376873,369.4440203562341 431.61241970021416,368.8721886999451 538.0449678800857,366.1051859996335 636.0749464668095,363.3842643300475 675.2869379014988,359.8343357025697 718,355.4457809367596" /><circle cx="64" cy="371.9070442992012" r="4" fill="#f472b6" /><circle cx="126.31905781584582" cy="371.91001267427123" r="4" fill="#f472b6" /><circle cx="159.2291220556745" cy="371.9182389937107" r="4" fill="#f472b6" /><circle cx="241.8543897216274" cy="370.54619565217394" r="4" fill="#f472b6" /><circle cx="320.97858672376873" cy="369.4440203562341" r="4" fill="#f472b6" /><circle cx="431.61241970021416" cy="368.8721886999451" r="4" fill="#f472b6" /><circle cx="538.0449678800857" cy="366.1051859996335" r="4" fill="#f472b6" /><circle cx="636.0749464668095" cy="363.3842643300475" r="4" fill="#f472b6" /><circle cx="675.2869379014988" cy="359.8343357025697" r="4" fill="#f472b6" /><circle cx="718" cy="355.4457809367596" r="4" fill="#f472b6" /></g></g><g class="legend-group"><g class="legend-item" data-key="npm"><rect x="750" y="62" width="12" height="12" rx="2" fill="#ea2039" /><text class="legend" x="768" y="72" dominant-baseline="middle">npm</text></g><g class="legend-item" data-key="pnpm"><rect x="750" y="82" width="12" height="12" rx="2" fill="#f9ad00" /><text class="legend" x="768" y="92" dominant-baseline="middle">pnpm</text></g><g class="legend-item" data-key="yarn_classic"><rect x="750" y="102" width="12" height="12" rx="2" fill="#2c8ebb" /><text class="legend" x="768" y="112" dominant-baseline="middle">Yarn Classic</text></g><g class="legend-item" data-key="yarn_modern"><rect x="750" y="122" width="12" height="12" rx="2" fill="#2f2a68" /><text class="legend" x="768" y="132" dominant-baseline="middle">Yarn (Berry)</text></g><g class="legend-item" data-key="bun"><rect x="750" y="142" width="12" height="12" rx="2" fill="#f472b6" /><text class="legend" x="768" y="152" dominant-baseline="middle">Bun</text></g></g><text class="footer" x="16" y="473">* npm &amp; pnpm values before 3/13/2026 are corrected estimates</text></svg>
