<svg xmlns="http://www.w3.org/2000/svg" width="720" height="420" viewBox="0 0 720 420" role="img" aria-label="Package manager popularity over time">
  <style>
    text { font-family: "Helvetica Neue", Arial, sans-serif; }
    .title { font-size: 20px; font-weight: 700; fill: #0f172a; }
    .subtitle { font-size: 12px; fill: #475569; }
    .axis { stroke: #cbd5e1; stroke-width: 1; }
    .legend { font-size: 12px; fill: #0f172a; }
    .tick { font-size: 12px; fill: #475569; }
  </style>
<text class="title" x="16" y="24">Package manager popularity over time</text><text class="subtitle" x="16" y="42">10/22/2023 – 3/13/2026</text><g class="y-ticks"><line class="axis" x1="64" y1="356" x2="600" y2="356" /><text class="tick" x="52" y="356" dominant-baseline="middle" text-anchor="end">0%</text><line class="axis" x1="64" y1="285" x2="600" y2="285" /><text class="tick" x="52" y="285" dominant-baseline="middle" text-anchor="end">20%</text><line class="axis" x1="64" y1="214" x2="600" y2="214" /><text class="tick" x="52" y="214" dominant-baseline="middle" text-anchor="end">40%</text><line class="axis" x1="64" y1="143" x2="600" y2="143" /><text class="tick" x="52" y="143" dominant-baseline="middle" text-anchor="end">60%</text><line class="axis" x1="64" y1="72" x2="600" y2="72" /><text class="tick" x="52" y="72" dominant-baseline="middle" text-anchor="end">80%</text></g><g class="x-ticks"><text class="tick" x="64" y="374" text-anchor="middle">2023-10-22</text><text class="tick" x="131" y="374" text-anchor="middle">2024-01-19</text><text class="tick" x="198" y="374" text-anchor="middle">2024-03-06</text><text class="tick" x="265" y="374" text-anchor="middle">2024-07-02</text><text class="tick" x="332" y="374" text-anchor="middle">2024-10-23</text><text class="tick" x="399" y="374" text-anchor="middle">2025-03-30</text><text class="tick" x="466" y="374" text-anchor="middle">2025-08-29</text><text class="tick" x="533" y="374" text-anchor="middle">2026-01-16</text><text class="tick" x="600" y="374" text-anchor="middle">2026-03-13</text></g><g class="series-group"><g class="series" data-key="npm"><polyline fill="none" stroke="#ea2039" stroke-width="3" points="64,166.8986928104575 131,166.44812601846826 198,166.15633423180594 265,159.59239130434784 332,154.4978189749182 399,149.97147558968732 466,139.565145684442 533,136.70098576122675 600,135.11973756150906" /><circle cx="64" cy="166.8986928104575" r="4" fill="#ea2039" /><circle cx="131" cy="166.44812601846826" r="4" fill="#ea2039" /><circle cx="198" cy="166.15633423180594" r="4" fill="#ea2039" /><circle cx="265" cy="159.59239130434784" r="4" fill="#ea2039" /><circle cx="332" cy="154.4978189749182" r="4" fill="#ea2039" /><circle cx="399" cy="149.97147558968732" r="4" fill="#ea2039" /><circle cx="466" cy="139.565145684442" r="4" fill="#ea2039" /><circle cx="533" cy="136.70098576122675" r="4" fill="#ea2039" /><circle cx="600" cy="135.11973756150906" r="4" fill="#ea2039" /></g><g class="series" data-key="yarn_modern"><polyline fill="none" stroke="#2f2a68" stroke-width="3" points="64,341.4983660130719 131,340.76643128734383 198,338.2021563342318 265,338.25 332,337.03053435114504 399,335.74766867800327 466,335.5079714128642 533,335.3921139101862 600,335.8141060688901" /><circle cx="64" cy="341.4983660130719" r="4" fill="#2f2a68" /><circle cx="131" cy="340.76643128734383" r="4" fill="#2f2a68" /><circle cx="198" cy="338.2021563342318" r="4" fill="#2f2a68" /><circle cx="265" cy="338.25" r="4" fill="#2f2a68" /><circle cx="332" cy="337.03053435114504" r="4" fill="#2f2a68" /><circle cx="399" cy="335.74766867800327" r="4" fill="#2f2a68" /><circle cx="466" cy="335.5079714128642" r="4" fill="#2f2a68" /><circle cx="533" cy="335.3921139101862" r="4" fill="#2f2a68" /><circle cx="600" cy="335.8141060688901" r="4" fill="#2f2a68" /></g><g class="series" data-key="yarn_classic"><polyline fill="none" stroke="#2c8ebb" stroke-width="3" points="64,264.92973856209153 131,267.1053775122216 198,271.0296495956873 265,276.3179347826087 332,279.7350054525627 399,283.94843664289635 466,289.84002199010445 533,296.12048192771084 600,298.547840349918" /><circle cx="64" cy="264.92973856209153" r="4" fill="#2c8ebb" /><circle cx="131" cy="267.1053775122216" r="4" fill="#2c8ebb" /><circle cx="198" cy="271.0296495956873" r="4" fill="#2c8ebb" /><circle cx="265" cy="276.3179347826087" r="4" fill="#2c8ebb" /><circle cx="332" cy="279.7350054525627" r="4" fill="#2c8ebb" /><circle cx="399" cy="283.94843664289635" r="4" fill="#2c8ebb" /><circle cx="466" cy="289.84002199010445" r="4" fill="#2c8ebb" /><circle cx="533" cy="296.12048192771084" r="4" fill="#2c8ebb" /><circle cx="600" cy="298.547840349918" r="4" fill="#2c8ebb" /></g><g class="series" data-key="pnpm"><polyline fill="none" stroke="#f9ad00" stroke-width="3" points="64,335.6977124183006 131,333.246061922868 198,333.80053908355796 265,333.6195652173913 332,336.6434023991276 399,338.0844761382337 466,337.65475536008796 533,336.947426067908 600,337.56096227446693" /><circle cx="64" cy="335.6977124183006" r="4" fill="#f9ad00" /><circle cx="131" cy="333.246061922868" r="4" fill="#f9ad00" /><circle cx="198" cy="333.80053908355796" r="4" fill="#f9ad00" /><circle cx="265" cy="333.6195652173913" r="4" fill="#f9ad00" /><circle cx="332" cy="336.6434023991276" r="4" fill="#f9ad00" /><circle cx="399" cy="338.0844761382337" r="4" fill="#f9ad00" /><circle cx="466" cy="337.65475536008796" r="4" fill="#f9ad00" /><circle cx="533" cy="336.947426067908" r="4" fill="#f9ad00" /><circle cx="600" cy="337.56096227446693" r="4" fill="#f9ad00" /></g><g class="series" data-key="bun"><polyline fill="none" stroke="#f472b6" stroke-width="3" points="64,355.22657952069716 131,355.22868006518195 198,355.2345013477089 265,354.26358695652175 332,353.48364231188657 399,353.07899067471203 466,351.1209455744915 533,349.1955093099671 600,346.68343357025697" /><circle cx="64" cy="355.22657952069716" r="4" fill="#f472b6" /><circle cx="131" cy="355.22868006518195" r="4" fill="#f472b6" /><circle cx="198" cy="355.2345013477089" r="4" fill="#f472b6" /><circle cx="265" cy="354.26358695652175" r="4" fill="#f472b6" /><circle cx="332" cy="353.48364231188657" r="4" fill="#f472b6" /><circle cx="399" cy="353.07899067471203" r="4" fill="#f472b6" /><circle cx="466" cy="351.1209455744915" r="4" fill="#f472b6" /><circle cx="533" cy="349.1955093099671" r="4" fill="#f472b6" /><circle cx="600" cy="346.68343357025697" r="4" fill="#f472b6" /></g></g><g class="legend-group"><g class="legend-item" data-key="npm"><rect x="632" y="62" width="12" height="12" rx="2" fill="#ea2039" /><text class="legend" x="650" y="72" dominant-baseline="middle">npm</text></g><g class="legend-item" data-key="yarn_modern"><rect x="632" y="82" width="12" height="12" rx="2" fill="#2f2a68" /><text class="legend" x="650" y="92" dominant-baseline="middle">Yarn (Berry)</text></g><g class="legend-item" data-key="yarn_classic"><rect x="632" y="102" width="12" height="12" rx="2" fill="#2c8ebb" /><text class="legend" x="650" y="112" dominant-baseline="middle">Yarn Classic</text></g><g class="legend-item" data-key="pnpm"><rect x="632" y="122" width="12" height="12" rx="2" fill="#f9ad00" /><text class="legend" x="650" y="132" dominant-baseline="middle">pnpm</text></g><g class="legend-item" data-key="bun"><rect x="632" y="142" width="12" height="12" rx="2" fill="#f472b6" /><text class="legend" x="650" y="152" dominant-baseline="middle">Bun</text></g></g></svg>
