<svg xmlns="http://www.w3.org/2000/svg" width="720" height="420" viewBox="0 0 720 420" role="img" aria-label="Package manager popularity over time">
  <style>
    text { font-family: "Helvetica Neue", Arial, sans-serif; }
    .title { font-size: 20px; font-weight: 700; fill: #e2e8f0; }
    .subtitle { font-size: 12px; fill: #cbd5e1; }
    .axis { stroke: #475569; stroke-width: 1; }
    .legend { font-size: 12px; fill: #e2e8f0; }
    .tick { font-size: 12px; fill: #cbd5e1; }
  </style>
<text class="title" x="16" y="24">Package manager popularity over time</text><text class="subtitle" x="16" y="42">10/22/2023 – 3/13/2026</text><g class="y-ticks"><line class="axis" x1="64" y1="324" x2="600" y2="324" /><text class="tick" x="52" y="324" dominant-baseline="middle" text-anchor="end">0%</text><line class="axis" x1="64" y1="261" x2="600" y2="261" /><text class="tick" x="52" y="261" dominant-baseline="middle" text-anchor="end">20%</text><line class="axis" x1="64" y1="198" x2="600" y2="198" /><text class="tick" x="52" y="198" dominant-baseline="middle" text-anchor="end">40%</text><line class="axis" x1="64" y1="135" x2="600" y2="135" /><text class="tick" x="52" y="135" dominant-baseline="middle" text-anchor="end">60%</text><line class="axis" x1="64" y1="72" x2="600" y2="72" /><text class="tick" x="52" y="72" dominant-baseline="middle" text-anchor="end">80%</text></g><g class="x-ticks"><text class="tick" x="68" y="344" text-anchor="end" transform="rotate(-35 68 344)">10/22/2023</text><text class="tick" x="135" y="344" text-anchor="end" transform="rotate(-35 135 344)">1/19/2024</text><text class="tick" x="202" y="344" text-anchor="end" transform="rotate(-35 202 344)">3/6/2024</text><text class="tick" x="269" y="344" text-anchor="end" transform="rotate(-35 269 344)">7/2/2024</text><text class="tick" x="336" y="344" text-anchor="end" transform="rotate(-35 336 344)">10/23/2024</text><text class="tick" x="403" y="344" text-anchor="end" transform="rotate(-35 403 344)">3/30/2025</text><text class="tick" x="470" y="344" text-anchor="end" transform="rotate(-35 470 344)">8/29/2025</text><text class="tick" x="537" y="344" text-anchor="end" transform="rotate(-35 537 344)">1/16/2026</text><text class="tick" x="604" y="344" text-anchor="end" transform="rotate(-35 604 344)">3/13/2026</text></g><g class="series-group"><g class="series" data-key="npm"><polyline fill="none" stroke="#ea2039" stroke-width="3" points="64,156.20588235294116 131,155.80608365019015 198,155.54716981132074 265,149.72282608695653 332,145.20229007633588 399,141.1859572133845 466,131.95217152281472 533,129.41073384446878 600,128.0076544559869" /><circle cx="64" cy="156.20588235294116" r="4" fill="#ea2039" /><circle cx="131" cy="155.80608365019015" r="4" fill="#ea2039" /><circle cx="198" cy="155.54716981132074" r="4" fill="#ea2039" /><circle cx="265" cy="149.72282608695653" r="4" fill="#ea2039" /><circle cx="332" cy="145.20229007633588" r="4" fill="#ea2039" /><circle cx="399" cy="141.1859572133845" r="4" fill="#ea2039" /><circle cx="466" cy="131.95217152281472" r="4" fill="#ea2039" /><circle cx="533" cy="129.41073384446878" r="4" fill="#ea2039" /><circle cx="600" cy="128.0076544559869" r="4" fill="#ea2039" /></g><g class="series" data-key="yarn_modern"><polyline fill="none" stroke="#7c6ff6" stroke-width="3" points="64,311.13235294117646 131,310.4828897338403 198,308.20754716981133 265,308.25 332,307.1679389312977 399,306.029621503017 466,305.8169323804288 533,305.7141292442497 600,306.0885729907053" /><circle cx="64" cy="311.13235294117646" r="4" fill="#7c6ff6" /><circle cx="131" cy="310.4828897338403" r="4" fill="#7c6ff6" /><circle cx="198" cy="308.20754716981133" r="4" fill="#7c6ff6" /><circle cx="265" cy="308.25" r="4" fill="#7c6ff6" /><circle cx="332" cy="307.1679389312977" r="4" fill="#7c6ff6" /><circle cx="399" cy="306.029621503017" r="4" fill="#7c6ff6" /><circle cx="466" cy="305.8169323804288" r="4" fill="#7c6ff6" /><circle cx="533" cy="305.7141292442497" r="4" fill="#7c6ff6" /><circle cx="600" cy="306.0885729907053" r="4" fill="#7c6ff6" /></g><g class="series" data-key="yarn_classic"><polyline fill="none" stroke="#2c8ebb" stroke-width="3" points="64,243.19117647058823 131,245.1216730038023 198,248.60377358490567 265,253.29619565217394 332,256.32824427480915 399,260.06692265496434 466,265.2946673996702 533,270.86746987951807 600,273.021323127392" /><circle cx="64" cy="243.19117647058823" r="4" fill="#2c8ebb" /><circle cx="131" cy="245.1216730038023" r="4" fill="#2c8ebb" /><circle cx="198" cy="248.60377358490567" r="4" fill="#2c8ebb" /><circle cx="265" cy="253.29619565217394" r="4" fill="#2c8ebb" /><circle cx="332" cy="256.32824427480915" r="4" fill="#2c8ebb" /><circle cx="399" cy="260.06692265496434" r="4" fill="#2c8ebb" /><circle cx="466" cy="265.2946673996702" r="4" fill="#2c8ebb" /><circle cx="533" cy="270.86746987951807" r="4" fill="#2c8ebb" /><circle cx="600" cy="273.021323127392" r="4" fill="#2c8ebb" /></g><g class="series" data-key="pnpm"><polyline fill="none" stroke="#f9ad00" stroke-width="3" points="64,305.9852941176471 131,303.80988593155894 198,304.3018867924528 265,304.14130434782606 332,306.82442748091603 399,308.10312671420735 466,307.7218251786696 533,307.09419496166487 600,307.6386003280481" /><circle cx="64" cy="305.9852941176471" r="4" fill="#f9ad00" /><circle cx="131" cy="303.80988593155894" r="4" fill="#f9ad00" /><circle cx="198" cy="304.3018867924528" r="4" fill="#f9ad00" /><circle cx="265" cy="304.14130434782606" r="4" fill="#f9ad00" /><circle cx="332" cy="306.82442748091603" r="4" fill="#f9ad00" /><circle cx="399" cy="308.10312671420735" r="4" fill="#f9ad00" /><circle cx="466" cy="307.7218251786696" r="4" fill="#f9ad00" /><circle cx="533" cy="307.09419496166487" r="4" fill="#f9ad00" /><circle cx="600" cy="307.6386003280481" r="4" fill="#f9ad00" /></g><g class="series" data-key="bun"><polyline fill="none" stroke="#f472b6" stroke-width="3" points="64,323.3137254901961 131,323.31558935361215 198,323.3207547169811 265,322.4592391304348 332,321.7671755725191 399,321.4081184860121 466,319.6706981858164 533,317.9622124863089 600,315.7331875341717" /><circle cx="64" cy="323.3137254901961" r="4" fill="#f472b6" /><circle cx="131" cy="323.31558935361215" r="4" fill="#f472b6" /><circle cx="198" cy="323.3207547169811" r="4" fill="#f472b6" /><circle cx="265" cy="322.4592391304348" r="4" fill="#f472b6" /><circle cx="332" cy="321.7671755725191" r="4" fill="#f472b6" /><circle cx="399" cy="321.4081184860121" r="4" fill="#f472b6" /><circle cx="466" cy="319.6706981858164" r="4" fill="#f472b6" /><circle cx="533" cy="317.9622124863089" r="4" fill="#f472b6" /><circle cx="600" cy="315.7331875341717" r="4" fill="#f472b6" /></g></g><g class="legend-group"><g class="legend-item" data-key="npm"><rect x="632" y="62" width="12" height="12" rx="2" fill="#ea2039" /><text class="legend" x="650" y="72" dominant-baseline="middle">npm</text></g><g class="legend-item" data-key="yarn_modern"><rect x="632" y="82" width="12" height="12" rx="2" fill="#7c6ff6" /><text class="legend" x="650" y="92" dominant-baseline="middle">Yarn (Berry)</text></g><g class="legend-item" data-key="yarn_classic"><rect x="632" y="102" width="12" height="12" rx="2" fill="#2c8ebb" /><text class="legend" x="650" y="112" dominant-baseline="middle">Yarn Classic</text></g><g class="legend-item" data-key="pnpm"><rect x="632" y="122" width="12" height="12" rx="2" fill="#f9ad00" /><text class="legend" x="650" y="132" dominant-baseline="middle">pnpm</text></g><g class="legend-item" data-key="bun"><rect x="632" y="142" width="12" height="12" rx="2" fill="#f472b6" /><text class="legend" x="650" y="152" dominant-baseline="middle">Bun</text></g></g></svg>
